 <svg  version="1.0" xmlns="http://www.w3.org/2000/svg"  width="450.000000pt" height="257.000000pt" viewBox="0 0 450.000000 257.000000"  preserveAspectRatio="xMidYMid meet">  <g transform="translate(0.000000,257.000000) scale(0.100000,-0.100000)" fill="#ffffff" stroke="none"> <path d="M2200 2567 c0 -3 10 -15 22 -27 19 -18 33 -20 110 -18 75 2 91 -1 115 -18 17 -13 29 -32 31 -50 2 -17 17 -42 38 -61 39 -37 42 -60 13 -97 -25 -32 -18 -35 11 -4 31 33 26 71 -15 107 -20 18 -35 40 -35 53 -1 57 -50 82 -161 83 -71 0 -91 3 -108 19 -12 11 -21 16 -21 13z"/> <path d="M2871 2552 c-71 -35 -67 -71 12 -106 48 -21 87 -56 87 -78 0 -4 -13 -20 -30 -34 -16 -15 -35 -43 -41 -63 -6 -20 -21 -47 -33 -60 -24 -27 -97 -61 -130 -61 -12 0 -31 -7 -42 -16 -18 -15 -18 -15 3 -5 37 19 50 14 45 -17 -2 -19 3 -33 17 -46 32 -29 26 -57 -24 -105 -50 -48 -52 -59 -26 -115 23 -48 18 -65 -22 -91 -21 -13 -33 -29 -34 -45 -1 -20 0 -21 3 -3 3 11 18 27 35 33 47 20 67 83 34 110 -8 7 -15 27 -15 46 0 27 8 39 40 65 46 37 51 69 20 109 -11 14 -20 30 -20 36 0 17 31 40 72 53 44 14 74 49 88 100 5 20 23 50 40 66 52 50 32 95 -58 130 -48 20 -69 47 -49 64 7 5 33 19 57 30 27 12 37 20 25 20 -11 0 -35 -8 -54 -17z"/> <path d="M2239 2403 c-13 -16 -12 -17 4 -4 9 7 17 15 17 17 0 8 -8 3 -21 -13z"/> <path d="M2670 2402 c-24 -19 -26 -41 -15 -118 6 -37 4 -43 -21 -63 -27 -21 -37 -25 -106 -36 -62 -10 -90 -42 -94 -104 -2 -46 -7 -57 -38 -86 -59 -54 -43 -100 57 -168 36 -24 34 -42 -8 -88 -51 -57 -48 -87 15 -148 27 -27 50 -43 50 -36 0 6 -18 28 -40 49 -58 53 -61 79 -16 125 20 20 36 46 36 57 0 13 -23 41 -60 73 -34 30 -60 61 -60 71 0 11 18 37 40 59 36 35 40 45 40 88 0 68 14 82 95 99 91 19 118 39 126 93 3 22 2 41 -2 41 -17 0 -20 42 -5 64 18 29 59 40 89 26 21 -11 21 -11 3 4 -26 21 -59 20 -86 -2z"/> <path d="M2204 2378 c-4 -7 -3 -8 4 -4 12 7 16 16 8 16 -3 0 -8 -5 -12 -12z"/> <path d="M2090 2360 c0 -7 3 -10 7 -7 3 4 3 10 0 14 -4 3 -7 0 -7 -7z"/> <path d="M2161 2344 c-31 -40 -27 -87 9 -117 36 -30 39 -67 10 -114 -27 -45 -54 -56 -143 -59 -50 -1 -86 -8 -101 -18 -25 -16 -52 -76 -35 -76 5 0 9 6 9 14 0 8 8 24 18 36 16 19 32 24 103 30 46 4 91 10 99 14 13 5 15 -1 12 -32 -3 -35 1 -45 50 -99 29 -33 68 -73 86 -88 41 -34 42 -67 3 -95 -54 -38 -50 -74 15 -136 32 -30 46 -74 23 -74 -5 0 -8 -4 -5 -9 4 -5 -5 -23 -19 -39 -31 -37 -32 -63 -3 -88 l22 -19 -17 27 c-15 25 -14 58 2 58 14 0 41 59 41 90 0 25 -9 41 -40 69 -49 45 -52 76 -11 111 55 47 51 60 -44 157 -47 48 -88 99 -92 112 -9 34 20 85 66 117 28 20 45 41 53 68 10 31 20 43 52 57 23 10 33 19 24 19 -46 0 -70 -23 -91 -92 -3 -9 -16 -22 -28 -28 -21 -12 -22 -11 -16 24 6 37 -4 55 -44 76 -26 14 -25 70 2 104 11 14 18 26 15 26 -2 0 -14 -12 -25 -26z"/> <path d="M2483 2263 c4 -3 10 -3 14 0 3 4 0 7 -7 7 -7 0 -10 -3 -7 -7z"/> <path d="M930 2226 c0 -8 5 -18 10 -21 6 -3 10 3 10 14 0 12 -4 21 -10 21 -5 0 -10 -6 -10 -14z"/> <path d="M989 2213 c-17 -20 -18 -23 -3 -10 11 9 24 14 27 10 4 -3 7 1 7 10 0 22 -2 22 -31 -10z"/> <path d="M860 2217 c0 -10 4 -16 9 -12 11 6 51 -46 51 -66 0 -10 -3 -10 -12 -1 -17 17 -33 15 -18 -3 10 -12 10 -15 0 -15 -8 0 -11 -3 -8 -6 4 -3 15 -1 26 5 15 8 21 8 24 -1 3 -9 6 -9 12 0 4 7 2 12 -3 12 -6 0 -11 15 -12 33 0 17 -3 27 -5 20 -3 -7 -16 0 -34 20 -23 25 -29 28 -30 14z"/> <path d="M1001 2189 c-1 -9 -11 -24 -23 -35 -21 -19 -21 -19 -16 3 4 13 2 26 -3 29 -14 8 -11 -42 4 -53 6 -6 26 -13 42 -16 l30 -6 -26 12 c-14 7 -24 18 -22 25 3 6 10 9 16 5 7 -3 9 -3 5 2 -4 4 0 14 10 22 9 8 12 12 5 9 -6 -4 -14 0 -16 6 -4 9 -6 7 -6 -3z"/> <path d="M1044 2188 c-4 -7 -3 -8 4 -4 12 7 16 16 8 16 -3 0 -8 -5 -12 -12z"/> <path d="M3461 2184 c0 -11 3 -14 6 -6 3 7 2 16 -1 19 -3 4 -6 -2 -5 -13z"/> <path d="M3604 2179 c-3 -6 -7 -32 -9 -58 -1 -25 -5 -66 -8 -91 -5 -32 -4 -38 2 -18 5 14 12 32 16 39 8 13 17 139 10 139 -2 0 -7 -5 -11 -11z m3 -46 c-4 -3 -7 0 -7 7 0 7 3 10 7 7 3 -4 3 -10 0 -14z"/> <path d="M775 2170 c4 -6 11 -8 16 -5 14 9 11 15 -7 15 -8 0 -12 -5 -9 -10z"/> <path d="M3499 2153 c12 -18 24 -33 27 -33 9 0 -15 37 -33 51 -12 10 -11 5 6 -18z"/> <path d="M823 2163 c4 -3 10 -3 14 0 3 4 0 7 -7 7 -7 0 -10 -3 -7 -7z"/> <path d="M853 2153 c4 -3 10 -3 14 0 3 4 0 7 -7 7 -7 0 -10 -3 -7 -7z"/> <path d="M3470 2150 c0 -7 3 -10 7 -7 3 4 3 10 0 14 -4 3 -7 0 -7 -7z"/> <path d="M3480 2127 c0 -5 5 -17 10 -28 8 -14 7 -19 -2 -19 -7 0 3 -13 22 -30 43 -36 30 -38 -29 -5 -27 16 -39 19 -31 9 17 -19 84 -54 105 -54 13 0 10 8 -13 38 -16 20 -36 51 -45 67 -9 17 -16 26 -17 22z"/> <path d="M2093 2113 c9 -2 23 -2 30 0 6 3 -1 5 -18 5 -16 0 -22 -2 -12 -5z"/> <path d="M3581 2104 c0 -11 3 -14 6 -6 3 7 2 16 -1 19 -3 4 -6 -2 -5 -13z"/> <path d="M3633 2108 c-4 -7 -8 -22 -9 -33 -1 -11 -4 -29 -8 -40 -7 -19 -7 -19 5 -1 12 19 30 86 24 86 -2 0 -7 -6 -12 -12z"/> <path d="M2541 2086 c-28 -29 -37 -87 -21 -126 7 -16 34 -45 59 -64 55 -39 81 -87 61 -112 -8 -8 -28 -21 -45 -28 -63 -27 -80 -136 -27 -178 15 -12 15 -11 -1 14 -37 59 -16 125 49 156 40 20 44 25 44 58 0 36 -7 46 -94 124 -51 45 -56 94 -15 152 25 34 20 36 -10 4z"/> <path d="M3538 2095 c5 -11 12 -27 15 -35 5 -13 6 -13 6 1 1 8 -6 24 -15 35 -15 19 -15 19 -6 -1z"/> <path d="M883 2093 c4 -3 10 -3 14 0 3 4 0 7 -7 7 -7 0 -10 -3 -7 -7z"/> <path d="M3675 2058 c-4 -26 -5 -53 -2 -60 3 -7 6 5 6 27 1 30 4 36 11 25 9 -13 10 -13 9 0 0 8 -4 24 -8 35 -7 16 -10 10 -16 -27z"/> <path d="M1073 2070 c-34 -20 -45 -50 -19 -50 8 0 23 -3 33 -6 15 -5 15 -4 3 5 -12 8 -8 11 20 12 19 1 42 2 50 1 11 0 10 3 -4 14 -11 8 -29 14 -40 13 -18 -1 -18 -2 4 -9 20 -6 15 -8 -25 -9 l-50 -1 33 20 c17 11 32 22 32 25 0 8 -2 7 -37 -15z"/> <path d="M935 2055 c33 -85 44 -126 45 -162 0 -57 -14 -61 -34 -10 -8 23 -26 48 -38 56 -22 13 -22 13 1 -13 22 -24 18 -38 -4 -17 -6 5 -19 5 -30 1 -14 -6 -15 -9 -4 -9 51 -3 99 -59 99 -119 0 -15 4 -32 8 -38 4 -7 8 38 10 99 1 80 6 117 18 134 11 18 19 22 28 14 9 -8 13 -7 13 2 0 7 -10 14 -22 15 -15 1 -24 -7 -31 -26 l-10 -27 -13 40 c-8 22 -21 49 -29 60 -14 20 -14 20 -7 0z"/> <path d="M995 2059 c-11 -16 -1 -19 13 -3 7 8 8 14 3 14 -5 0 -13 -5 -16 -11z"/> <path d="M1010 2040 c0 -7 3 -10 7 -7 3 4 3 10 0 14 -4 3 -7 0 -7 -7z"/> <path d="M3748 1989 c-21 -41 -27 -48 -28 -30 0 13 -3 22 -6 18 -10 -10 7 -88 18 -81 5 3 7 12 4 20 -7 18 3 46 14 39 5 -3 6 5 3 17 -4 19 -3 21 7 8 10 -13 11 -13 7 2 -3 9 -1 18 5 20 6 2 9 12 7 23 -3 13 -12 3 -31 -36z"/> <path d="M3702 2010 c0 -14 2 -19 5 -12 2 6 2 18 0 25 -3 6 -5 1 -5 -13z"/> <path d="M1125 1995 c11 -9 19 -21 17 -26 -1 -6 2 -8 8 -4 13 8 4 22 -23 35 -22 11 -22 11 -2 -5z"/> <path d="M3630 2004 c0 -4 9 -22 21 -40 22 -36 40 -37 38 -1 -1 20 -1 20 -8 -3 -7 -24 -7 -23 -24 13 -17 34 -27 46 -27 31z"/> <path d="M1070 1990 c8 -5 20 -10 25 -10 6 0 3 5 -5 10 -8 5 -19 10 -25 10 -5 0 -3 -5 5 -10z"/> <path d="M3503 1993 c4 -3 10 -3 14 0 3 4 0 7 -7 7 -7 0 -10 -3 -7 -7z"/> <path d="M840 1955 c19 -19 36 -35 39 -35 2 0 -6 11 -19 25 -21 23 -17 35 6 18 5 -5 1 0 -9 10 -11 9 -26 17 -35 17 -11 0 -6 -11 18 -35z"/> <path d="M900 1980 c0 -7 3 -10 7 -7 3 4 3 10 0 14 -4 3 -7 0 -7 -7z"/> <path d="M3460 1980 c-10 -6 -5 -9 18 -8 22 1 29 4 20 9 -16 11 -20 11 -38 -1z"/> <path d="M1113 1973 c4 -3 10 -3 14 0 3 4 0 7 -7 7 -7 0 -10 -3 -7 -7z"/> <path d="M3590 1976 c0 -5 5 -26 11 -47 8 -25 16 -36 26 -32 11 4 11 9 -4 26 -18 20 -18 20 7 7 14 -7 33 -19 43 -28 9 -8 20 -12 24 -9 3 4 1 7 -6 7 -7 0 -9 5 -5 13 4 6 4 9 -1 5 -8 -8 -62 25 -82 50 -7 9 -13 12 -13 8z"/> <path d="M915 1959 c-5 -8 -4 -10 0 -6 5 4 15 -3 22 -15 7 -13 12 -18 13 -12 0 5 -6 18 -13 29 -12 15 -15 16 -22 4z"/> <path d="M1900 1936 c0 -16 26 -39 37 -34 4 1 -2 13 -14 25 -15 14 -23 18 -23 9z"/> <path d="M1019 1933 c0 -5 -1 -35 -2 -68 -2 -52 0 -60 18 -63 11 -2 17 -1 13 3 -12 13 12 34 30 28 14 -4 14 -3 3 5 -12 8 -8 14 20 31 19 12 38 21 43 21 5 0 7 3 4 6 -4 3 -20 -2 -37 -10 -41 -22 -44 -20 -26 15 22 42 14 45 -21 7 -16 -18 -21 -26 -11 -19 9 7 17 11 17 8 0 -9 -41 -77 -47 -77 -2 0 -1 5 3 11 9 15 11 109 2 109 -5 0 -8 -3 -9 -7z"/> <path d="M3493 1933 c4 -3 10 -3 14 0 3 4 0 7 -7 7 -7 0 -10 -3 -7 -7z"/> <path d="M3760 1920 c-6 -11 -8 -20 -6 -20 3 0 10 9 16 20 6 11 8 20 6 20 -3 0 -10 -9 -16 -20z"/> <path d="M3536 1915 c16 -13 17 -16 4 -25 -13 -8 -13 -10 1 -10 14 0 16 -6 9 -35 -5 -22 -4 -37 3 -42 5 -3 7 -1 3 5 -3 6 -2 13 4 17 5 3 15 15 21 27 8 15 8 19 0 14 -6 -4 -11 -2 -11 3 0 17 30 13 36 -4 4 -8 3 -31 0 -51 -6 -30 -10 -33 -22 -23 -12 9 -13 9 -9 -2 4 -10 -16 -24 -65 -47 -71 -33 -91 -53 -44 -44 15 3 21 8 15 12 -13 7 30 30 57 30 15 0 15 -2 2 -10 -13 -8 -13 -10 -1 -10 11 0 10 -4 -5 -16 -10 -8 -12 -12 -4 -8 8 4 25 16 37 27 18 16 25 18 37 7 18 -14 76 -100 76 -112 0 -4 -14 -8 -30 -8 -33 0 -99 -30 -119 -53 -10 -13 -9 -15 8 -10 12 3 21 8 21 12 0 6 25 6 112 1 10 -1 17 -4 17 -8 -1 -4 -1 -14 0 -22 1 -13 2 -13 11 0 7 11 10 5 10 -24 0 -38 0 -39 20 -21 20 18 28 69 12 79 -5 3 -7 -8 -4 -23 2 -16 -1 -32 -7 -35 -6 -4 -11 0 -11 11 -1 10 -3 44 -6 77 -5 43 -3 61 7 67 23 14 37 10 44 -12 4 -11 9 -18 12 -16 2 3 -1 15 -7 28 -11 19 -10 21 4 16 20 -8 20 8 0 48 -8 17 -12 22 -9 13 2 -10 0 -18 -5 -18 -6 0 -10 6 -11 13 0 6 -9 -6 -20 -28 l-19 -40 6 60 c3 33 9 62 14 65 4 3 4 14 0 25 -4 12 -2 33 7 50 13 29 13 30 -3 7 -10 -13 -19 -47 -20 -76 -3 -50 -22 -120 -23 -85 -1 9 -10 19 -21 22 -24 6 -27 -8 -4 -17 9 -4 14 -9 11 -12 -3 -4 0 -13 8 -21 8 -8 15 -26 15 -40 0 -22 -6 -17 -44 35 -43 58 -45 63 -40 118 6 69 10 76 24 39 8 -22 7 -31 -5 -45 -29 -32 -15 -31 24 2 22 18 38 35 36 37 -3 2 -11 -2 -20 -9 -15 -13 -23 -4 -29 32 -3 24 -16 37 -31 31 -8 -3 -15 -1 -15 4 0 5 -16 17 -35 26 -44 21 -55 22 -29 2z m31 -72 c-4 -3 -7 0 -7 7 0 7 3 10 7 7 3 -4 3 -10 0 -14z m200 -150 c-4 -3 -7 0 -7 7 0 7 3 10 7 7 3 -4 3 -10 0 -14z m-17 -3 c0 -5 -5 -10 -11 -10 -5 0 -7 5 -4 10 3 6 8 10 11 10 2 0 4 -4 4 -10z m-65 -103 c0 -5 -26 -10 -59 -11 -53 -3 -56 -2 -35 10 25 15 94 15 94 1z"/> <path d="M1420 1890 c0 -7 3 -10 7 -7 3 4 3 10 0 14 -4 3 -7 0 -7 -7z"/> <path d="M1982 1889 c51 -19 45 -55 -18 -107 -29 -24 -37 -39 -41 -75 -4 -36 -1 -49 16 -66 11 -11 29 -21 39 -21 10 0 29 -7 42 -16 l25 -16 -24 21 c-13 12 -31 21 -41 21 -26 0 -50 33 -50 69 0 26 10 43 50 81 28 27 50 57 50 68 0 24 -31 52 -56 51 -14 0 -13 -3 8 -10z"/> <path d="M806 1878 c3 -10 10 -18 16 -18 5 0 6 -5 2 -12 -4 -6 -3 -8 4 -4 6 3 23 -10 38 -31 15 -21 31 -42 35 -46 3 -5 9 3 11 17 5 22 3 24 -10 14 -13 -11 -14 -10 -9 7 4 11 2 27 -4 35 -8 11 -9 9 -4 -10 6 -22 1 -19 -39 20 -26 25 -44 37 -40 28z"/> <path d="M858 1883 c6 -2 18 -2 25 0 6 3 1 5 -13 5 -14 0 -19 -2 -12 -5z"/> <path d="M3480 1876 c19 -6 42 -15 50 -19 8 -5 4 1 -9 12 -13 12 -35 21 -50 20 -24 -1 -23 -2 9 -13z"/> <path d="M3423 1873 c4 -3 10 -3 14 0 3 4 0 7 -7 7 -7 0 -10 -3 -7 -7z"/> <path d="M3774 1865 c3 -8 1 -14 -5 -12 -6 1 -15 -8 -19 -20 -7 -16 -5 -21 7 -19 25 4 45 66 22 66 -6 0 -9 -7 -5 -15z m-7 -42 c-4 -3 -7 0 -7 7 0 7 3 10 7 7 3 -4 3 -10 0 -14z"/> <path d="M3440 1860 c-8 -5 -10 -10 -5 -10 6 0 17 5 25 10 8 5 11 10 5 10 -5 0 -17 -5 -25 -10z"/> <path d="M3479 1833 c-13 -15 -12 -15 11 -3 34 17 36 20 18 20 -9 0 -22 -7 -29 -17z"/> <path d="M927 1834 c-3 -5 1 -15 9 -22 16 -14 18 -5 5 17 -5 7 -11 9 -14 5z"/> <path d="M835 1821 c3 -5 -3 -12 -12 -14 -15 -4 -15 -5 3 -6 11 0 26 -7 33 -13 8 -7 6 -1 -4 15 -9 15 -19 27 -22 27 -2 0 -2 -4 2 -9z"/> <path d="M778 1813 c7 -3 16 -2 19 1 4 3 -2 6 -13 5 -11 0 -14 -3 -6 -6z"/> <path d="M1068 1813 c7 -3 16 -2 19 1 4 3 -2 6 -13 5 -11 0 -14 -3 -6 -6z"/> <path d="M2073 1813 c15 -2 39 -2 55 0 15 2 2 4 -28 4 -30 0 -43 -2 -27 -4z"/> <path d="M1101 1806 c2 -2 15 -9 29 -15 24 -11 24 -11 6 3 -16 13 -49 24 -35 12z"/> <path d="M1073 1793 c4 -3 10 -3 14 0 3 4 0 7 -7 7 -7 0 -10 -3 -7 -7z"/> <path d="M3532 1784 c10 -10 20 -16 22 -13 3 3 -5 11 -17 18 -21 13 -21 12 -5 -5z"/> <path d="M3655 1768 c-16 -17 -22 -25 -12 -18 16 12 20 12 28 -1 7 -11 9 -10 9 7 0 11 5 25 12 32 7 7 8 12 3 11 -6 0 -23 -14 -40 -31z"/> <path d="M3861 1756 c-21 -30 -26 -43 -16 -42 19 3 22 6 40 49 20 49 13 47 -24 -7z"/> <path d="M810 1780 c8 -5 22 -9 30 -9 10 0 8 3 -5 9 -27 12 -43 12 -25 0z"/> <path d="M930 1770 c0 -7 3 -10 7 -7 3 4 3 10 0 14 -4 3 -7 0 -7 -7z"/> <path d="M1070 1770 c8 -5 22 -9 30 -9 10 0 8 3 -5 9 -27 12 -43 12 -25 0z"/> <path d="M1006 1739 c-5 -26 -9 -29 -28 -24 l-23 6 21 -18 c12 -10 25 -29 29 -43 8 -25 8 -25 -14 -6 -27 24 -28 13 -1 -12 22 -20 35 -62 20 -62 -5 0 -16 12 -24 28 -8 15 -15 23 -16 18 0 -5 11 -29 25 -53 23 -38 26 -53 24 -126 -2 -71 -26 -186 -28 -133 -1 18 -2 18 -21 1 -19 -17 -20 -17 -20 -1 0 10 -5 27 -12 39 l-12 22 -6 -25 c-6 -24 -8 -23 -41 24 -61 86 -59 85 -52 46 3 -19 10 -43 15 -52 7 -15 4 -18 -24 -19 -27 -1 -28 -3 -8 -6 14 -2 32 -7 40 -10 8 -3 20 -5 26 -4 6 0 17 -6 24 -14 15 -18 0 -20 -19 -2 -11 10 -13 9 -8 -6 7 -18 -1 -16 -86 23 -41 20 -44 5 -8 -40 l32 -40 -28 -1 c-27 -1 -27 -1 5 -9 18 -4 36 -10 39 -14 11 -11 -26 -6 -73 10 -25 8 -48 13 -50 11 -7 -7 85 -37 113 -37 27 0 31 -16 5 -24 -23 -8 -86 -65 -79 -73 3 -3 21 4 39 15 18 11 47 26 63 32 l30 11 -21 -23 c-36 -40 -40 -52 -13 -37 13 7 27 12 31 11 4 -1 15 13 24 31 22 42 19 40 43 27 24 -12 28 -30 7 -30 -7 0 -32 -25 -56 -54 -26 -35 -54 -59 -74 -66 -29 -9 -35 -18 -49 -68 -14 -51 -15 -58 -1 -69 22 -17 129 -33 217 -33 76 0 77 0 60 -20 -14 -16 -28 -20 -68 -18 -47 1 -47 2 -10 5 75 8 55 18 -38 20 -72 1 -83 -1 -52 -7 32 -7 25 -8 -35 -6 -62 3 -69 2 -40 -6 19 -6 51 -19 71 -29 37 -19 78 -28 51 -10 -11 7 -11 9 2 14 9 4 16 3 16 -1 0 -4 19 -6 42 -4 32 4 40 1 36 -10 -17 -42 86 -90 230 -108 81 -11 86 -10 255 22 l107 21 0 41 c0 80 -66 170 -133 182 l-41 6 25 15 c23 14 22 14 -16 8 -22 -3 -60 -8 -85 -10 -41 -5 -39 -4 15 10 146 38 135 32 135 75 0 38 0 39 43 43 36 3 34 4 -18 6 -82 3 -44 19 48 20 37 1 96 8 130 16 34 8 92 17 129 20 100 9 113 42 34 82 l-31 15 34 -35 34 -36 -34 -5 c-107 -17 -133 -11 -81 19 l27 16 -26 -4 c-23 -3 -27 1 -36 35 -11 40 0 51 25 26 7 -7 12 -8 12 -2 0 6 -5 15 -12 22 -9 9 -9 12 2 12 7 0 11 3 8 6 -4 3 -15 1 -27 -5 -18 -10 -20 -8 -23 26 -3 37 -4 38 -68 55 -88 24 -135 16 -163 -28 -12 -18 -35 -39 -52 -45 -16 -7 -38 -19 -47 -26 -14 -13 -18 -12 -26 4 -5 10 -8 23 -6 28 2 6 -12 28 -32 50 -19 22 -32 32 -28 23 5 -16 -1 -18 -45 -18 -28 0 -51 4 -51 10 0 14 -60 80 -74 80 -7 0 -8 -3 -1 -8 6 -4 28 -28 49 -54 36 -45 40 -48 83 -45 l45 2 34 -60 c30 -54 32 -61 16 -67 -37 -15 -99 -8 -127 14 -19 15 -40 21 -73 20 -39 0 -50 -5 -72 -31 -28 -35 -46 -42 -30 -12 14 26 13 108 -2 117 -6 4 -8 3 -5 -3 4 -6 0 -24 -8 -39 -8 -16 -15 -36 -15 -44 -1 -11 -3 -10 -12 4 -6 10 -11 48 -11 84 -1 61 1 67 31 93 18 16 32 32 32 36 0 4 -13 -6 -29 -21 l-28 -27 -1 66 c-1 51 2 65 13 65 21 0 19 17 -7 58 -17 27 -22 50 -21 99 0 35 -1 63 -2 63 -1 0 -5 -14 -9 -31z m44 -169 c0 -3 -6 -7 -13 -7 -7 0 -13 8 -13 18 0 13 3 15 13 7 7 -6 13 -14 13 -18z m-170 -228 c-1 -15 -40 41 -40 57 0 9 8 3 20 -17 11 -18 20 -36 20 -40z m833 23 c13 -6 17 -19 17 -55 0 -27 5 -61 10 -75 11 -29 3 -78 -11 -69 -5 3 -16 -1 -24 -9 -8 -8 -35 -18 -60 -22 -39 -5 -49 -3 -62 12 -13 16 -14 16 -9 1 9 -30 -55 -15 -79 18 -11 15 -33 40 -48 54 -35 33 -28 53 23 74 22 8 44 24 49 35 26 47 42 54 110 48 37 -3 74 -9 84 -12z m-876 -67 c61 -28 58 -27 47 -37 -5 -5 -29 5 -59 25 -58 40 -54 43 12 12z m185 -28 c3 -16 1 -30 -4 -30 -4 0 -8 14 -8 30 0 17 2 30 4 30 2 0 6 -13 8 -30z m48 -27 c-10 -16 -11 -15 -6 7 3 14 6 32 7 40 1 8 4 5 6 -7 2 -12 -1 -30 -7 -40z m-235 17 c10 -11 16 -20 13 -20 -3 0 -13 9 -23 20 -10 11 -16 20 -13 20 3 0 13 -9 23 -20z m82 -11 c-3 -11 -2 -19 3 -19 4 0 10 -6 13 -12 3 -8 -4 -13 -18 -13 -19 0 -21 3 -15 32 4 18 5 35 1 39 -3 4 0 4 7 -1 8 -4 12 -16 9 -26z m65 -10 c-4 -39 -5 -39 -19 -19 -13 19 -13 23 3 41 9 10 18 19 18 19 1 0 0 -18 -2 -41z m273 -14 c22 -14 45 -25 52 -25 7 0 29 -15 49 -34 21 -19 50 -37 66 -40 17 -3 36 -18 48 -38 22 -35 22 -65 1 -60 -7 1 -19 -2 -27 -9 -7 -6 -18 -8 -23 -5 -5 4 -12 2 -16 -4 -3 -5 -13 -10 -21 -10 -11 0 -13 6 -9 21 5 15 4 19 -5 14 -8 -5 -8 -1 1 13 15 24 6 38 -43 66 l-33 18 30 -25 c22 -19 30 -33 30 -60 0 -26 -4 -33 -14 -29 -10 4 -12 1 -6 -8 5 -8 3 -11 -6 -8 -8 3 -14 10 -14 17 0 6 -11 17 -25 24 -14 7 -32 27 -40 44 -18 38 -70 79 -111 88 -34 8 -35 12 -11 41 32 41 71 43 127 9z m-375 -5 c0 -5 -2 -10 -4 -10 -3 0 -8 5 -11 10 -3 6 -1 10 4 10 6 0 11 -4 11 -10z m579 -52 c10 -24 18 -44 17 -45 -5 -6 -105 49 -120 66 -19 21 -19 21 33 21 51 0 52 0 70 -42z m-619 8 c0 -2 -16 -13 -35 -25 -19 -11 -35 -18 -35 -16 0 5 61 45 68 45 1 0 2 -2 2 -4z m307 -22 c18 -7 45 -25 60 -40 l27 -27 -32 -28 c-33 -30 -31 -40 4 -14 28 21 30 20 53 -28 25 -51 26 -64 7 -64 -8 0 -12 6 -9 12 2 7 -3 15 -12 19 -9 3 -15 1 -14 -7 3 -28 -2 -39 -16 -33 -9 3 -18 -1 -21 -8 -3 -8 -12 -17 -20 -20 -8 -3 -13 -2 -10 2 2 4 -7 8 -22 9 -24 2 -24 1 -7 -7 18 -8 17 -9 -8 -9 -20 -1 -32 7 -47 31 -10 17 -17 35 -14 40 3 4 0 8 -6 8 -6 0 -8 -10 -5 -22 3 -13 -1 -41 -9 -63 l-15 -40 -1 40 c-3 52 -13 87 -25 83 -14 -5 -12 -53 3 -51 8 2 12 -8 11 -30 -1 -23 -3 -26 -6 -9 -4 22 -23 32 -23 12 0 -5 -8 -10 -18 -10 -10 0 -24 -6 -31 -12 -11 -11 -13 -10 -9 2 4 12 -5 15 -47 15 -29 0 -51 -3 -48 -7 2 -5 0 -8 -5 -8 -6 0 -12 7 -16 15 -3 8 -12 12 -21 9 -18 -7 -18 -1 -5 48 11 39 41 64 65 54 8 -3 18 7 25 25 7 16 21 34 31 39 10 6 20 19 24 29 3 11 19 22 34 26 16 3 46 15 67 26 39 19 50 19 111 -7z m323 -227 c59 -21 67 -27 92 -72 31 -56 37 -102 13 -102 -8 0 -16 10 -16 21 -1 15 -4 13 -9 -9 l-8 -30 -1 28 c-1 19 -5 26 -13 21 -7 -4 -8 -3 -4 4 4 6 0 24 -8 39 -17 32 -22 23 -5 -10 7 -16 3 -14 -14 7 l-25 29 11 -42 c6 -22 15 -41 20 -41 4 0 5 -4 2 -10 -3 -5 -1 -10 4 -10 6 0 11 -5 11 -11 0 -6 -7 -8 -16 -5 -8 3 -12 2 -9 -4 3 -6 -1 -10 -10 -10 -9 0 -13 5 -10 10 3 6 -1 10 -9 10 -8 0 -18 -4 -21 -10 -11 -18 -25 -11 -26 13 -1 21 -1 21 -7 2 -5 -16 -16 -20 -44 -20 -20 0 -36 -4 -35 -9 1 -4 -6 -10 -15 -11 -10 -2 -18 1 -18 6 0 5 -3 8 -7 8 -5 -1 -19 -1 -32 0 -17 1 -22 5 -17 18 6 16 6 16 -12 0 -28 -26 -34 -20 -16 16 l16 32 -27 -30 -26 -30 6 30 6 30 -21 -25 c-17 -21 -19 -22 -14 -5 6 20 5 20 -10 1 -20 -25 -21 -5 -1 37 12 23 12 27 2 15 -8 -10 -17 -15 -21 -11 -4 4 -4 -1 0 -11 6 -15 4 -17 -6 -11 -8 5 -11 4 -7 -2 4 -6 1 -13 -6 -16 -7 -3 -13 5 -13 19 -1 13 2 22 6 19 4 -3 10 2 14 10 8 22 -11 28 -23 8 -6 -10 -11 -14 -11 -9 0 5 -9 1 -20 -9 -31 -28 -23 -2 15 48 31 40 39 45 82 49 32 2 57 -2 80 -14 18 -10 39 -18 46 -18 8 0 19 -10 24 -23 6 -13 18 -24 27 -24 8 0 13 4 10 9 -3 5 -9 6 -13 3 -5 -2 -13 7 -19 20 -7 14 -20 25 -30 25 -9 0 -28 7 -41 16 -32 23 -14 37 67 50 93 16 89 16 162 -9z m-390 -22 c0 -8 -4 -17 -10 -20 -6 -4 -10 5 -10 20 0 15 4 24 10 20 6 -3 10 -12 10 -20z m-3 -122 c-4 -3 -7 0 -7 7 0 7 3 10 7 7 3 -4 3 -10 0 -14z"/> <path d="M1722 1210 c0 -19 2 -27 5 -17 2 9 2 25 0 35 -3 9 -5 1 -5 -18z"/> <path d="M1535 1150 c-3 -5 -1 -10 4 -10 6 0 11 5 11 10 0 6 -2 10 -4 10 -3 0 -8 -4 -11 -10z"/> <path d="M1143 1023 c4 -3 10 -3 14 0 3 4 0 7 -7 7 -7 0 -10 -3 -7 -7z"/> <path d="M893 1013 c4 -3 10 -3 14 0 3 4 0 7 -7 7 -7 0 -10 -3 -7 -7z"/> <path d="M1113 1013 c4 -3 10 -3 14 0 3 4 0 7 -7 7 -7 0 -10 -3 -7 -7z"/> <path d="M965 974 c4 -16 7 -38 7 -49 -1 -13 1 -16 7 -7 10 16 2 70 -12 79 -6 4 -7 -4 -2 -23z"/> <path d="M1123 1753 c4 -3 10 -3 14 0 3 4 0 7 -7 7 -7 0 -10 -3 -7 -7z"/> <path d="M1246 1745 c4 -8 8 -15 10 -15 2 0 4 7 4 15 0 8 -4 15 -10 15 -5 0 -7 -7 -4 -15z"/> <path d="M2210 1750 c0 -7 3 -10 7 -7 3 4 3 10 0 14 -4 3 -7 0 -7 -7z"/> <path d="M850 1735 c-11 -13 -8 -15 16 -14 17 1 22 3 11 6 -9 2 -15 9 -12 14 10 15 -1 10 -15 -6z"/> <path d="M1168 1743 c7 -3 16 -2 19 1 4 3 -2 6 -13 5 -11 0 -14 -3 -6 -6z"/> <path d="M3503 1713 c4 -3 10 -3 14 0 3 4 0 7 -7 7 -7 0 -10 -3 -7 -7z"/> <path d="M3564 1698 c-4 -7 -3 -8 4 -4 12 7 16 16 8 16 -3 0 -8 -5 -12 -12z"/> <path d="M3857 1699 c-9 -5 -22 -7 -29 -3 -7 4 -8 3 -4 -4 4 -7 3 -12 -2 -12 -6 0 -13 -7 -16 -16 -5 -12 0 -12 22 4 15 10 36 24 47 30 11 6 16 11 10 11 -5 0 -18 -4 -28 -10z"/> <path d="M813 1693 c4 -3 10 -3 14 0 3 4 0 7 -7 7 -7 0 -10 -3 -7 -7z"/> <path d="M845 1680 c3 -5 8 -10 11 -10 3 0 2 5 -1 10 -3 6 -8 10 -11 10 -3 0 -2 -4 1 -10z"/> <path d="M2693 1673 c4 -3 10 -3 14 0 3 4 0 7 -7 7 -7 0 -10 -3 -7 -7z"/> <path d="M3513 1673 c4 -3 10 -3 14 0 3 4 0 7 -7 7 -7 0 -10 -3 -7 -7z"/> <path d="M920 1661 c0 -6 4 -13 10 -16 6 -3 7 1 4 9 -7 18 -14 21 -14 7z"/> <path d="M3032 1654 c-23 -10 -38 -11 -52 -4 -12 7 -27 7 -45 0 -15 -6 -37 -7 -51 -4 -14 4 -34 0 -47 -8 -13 -9 -38 -13 -64 -10 -34 3 -44 0 -55 -17 -8 -14 -23 -21 -44 -21 -31 0 -48 -13 -69 -54 -7 -11 -18 -20 -25 -18 -26 6 -59 -8 -65 -28 -4 -11 -15 -20 -26 -20 -24 0 -79 -52 -79 -74 0 -8 -11 -26 -25 -40 -14 -14 -25 -33 -25 -43 0 -10 14 -63 31 -118 17 -55 39 -131 50 -170 11 -38 25 -86 31 -106 7 -24 20 -41 37 -49 42 -19 379 -70 466 -70 52 0 105 7 150 20 104 31 114 32 66 9 -105 -50 -251 -57 -438 -19 -111 23 -147 25 -138 9 4 -6 14 -8 22 -5 8 3 12 2 9 -3 -3 -4 58 -16 135 -26 208 -26 292 -19 432 40 35 15 16 -12 -20 -29 -63 -28 -144 -46 -209 -46 -141 0 -428 45 -444 70 -3 4 -18 12 -33 15 -22 6 -26 4 -21 -8 3 -9 29 -21 60 -28 65 -15 82 -30 21 -18 -39 7 -56 5 -46 -5 5 -5 57 -13 143 -21 64 -6 79 -12 71 -26 -4 -5 11 -9 32 -10 81 -2 134 -7 141 -13 10 -11 -21 -27 -38 -19 -8 3 -35 8 -60 11 -37 3 -43 2 -32 -9 16 -17 144 -20 154 -5 5 7 8 7 8 -1 0 -19 18 -16 23 5 4 16 5 16 6 0 1 -22 21 -24 21 -2 0 9 9 18 20 21 11 3 20 8 20 12 0 11 -74 10 -87 -1 -9 -7 -13 -7 -13 0 0 6 -25 13 -57 15 -32 2 -2 4 67 5 72 1 148 8 180 17 66 18 60 17 60 6 0 -5 -13 -12 -30 -16 -42 -9 -38 -24 5 -20 l36 4 -31 -35 c-34 -40 -41 -88 -12 -99 9 -3 73 -9 142 -12 185 -8 273 15 263 71 -5 23 -3 24 84 29 106 6 141 13 160 32 8 8 19 15 25 15 6 0 9 2 6 5 -2 3 -31 -4 -63 -15 -55 -19 -179 -30 -192 -16 -3 3 18 6 48 6 59 0 153 21 199 45 l28 14 -33 95 c-18 52 -30 98 -26 102 3 4 1 4 -5 1 -20 -12 -38 20 -26 46 7 15 11 17 11 6 1 -9 8 -16 16 -16 9 0 14 6 11 13 -3 7 -1 14 3 16 4 2 11 16 15 32 7 27 6 28 -10 15 -15 -13 -16 -11 -12 24 2 20 0 37 -4 37 -4 0 -8 7 -8 16 0 11 11 2 29 -22 19 -27 26 -45 21 -59 -3 -11 -3 -33 0 -50 l7 -30 7 38 c5 20 6 46 3 56 -5 19 15 42 47 54 11 4 17 10 14 13 -3 2 -17 0 -31 -5 -18 -7 -27 -7 -31 2 -2 7 -5 3 -5 -7 -1 -16 -5 -15 -26 10 -30 35 -30 30 -4 89 11 25 19 49 16 51 -3 3 -13 -15 -22 -40 -26 -68 -40 -59 -37 24 0 18 -1 20 -5 6 -4 -17 -6 -16 -17 5 -6 13 -21 24 -32 24 -11 1 -39 15 -61 33 -45 35 -55 39 -47 17 3 -8 9 -13 12 -12 4 1 9 -2 10 -8 2 -5 8 -15 13 -21 7 -8 -4 -13 -37 -17 -32 -3 -54 -13 -75 -33 -16 -15 -30 -26 -32 -23 -4 7 -23 51 -40 94 -9 22 -30 78 -48 125 -19 47 -42 97 -52 113 -23 34 -70 59 -105 56 -15 -1 -35 2 -44 6 -10 4 -25 5 -33 1 -8 -3 -30 1 -49 9 -42 18 -51 18 -94 -1z m106 -22 c15 -15 20 -16 31 -5 15 17 26 16 43 -1 10 -9 20 -11 31 -5 21 12 82 -13 96 -39 16 -30 13 -42 -6 -36 -14 5 -15 4 -4 -4 17 -12 6 -49 -20 -62 -10 -6 -19 -17 -19 -25 0 -8 -10 -20 -22 -26 -13 -7 -39 -28 -59 -48 -96 -94 -134 -122 -224 -163 -44 -20 -64 -23 -170 -21 -66 0 -153 4 -194 8 l-74 7 69 29 c37 16 72 29 77 29 5 0 35 -16 68 -36 43 -27 65 -35 84 -30 31 8 34 43 5 77 -23 29 -26 18 -4 -16 9 -13 13 -29 9 -35 -11 -18 -49 -4 -133 48 -43 27 -86 52 -97 56 -13 5 -16 10 -7 13 7 3 43 -10 80 -28 107 -53 128 -62 115 -49 -6 7 -9 19 -6 27 8 20 -14 33 -56 33 -18 0 -55 8 -80 17 -54 19 -91 13 -71 -12 7 -9 11 -16 9 -18 -2 -1 -26 -13 -54 -27 -38 -19 -50 -30 -49 -48 1 -28 -19 -28 -71 1 -63 36 -74 107 -18 115 15 2 19 9 15 28 -6 32 21 62 62 70 19 3 36 14 42 27 6 15 17 21 34 20 19 -2 31 6 47 32 17 25 32 36 60 41 21 4 44 15 51 26 14 19 48 24 72 8 10 -6 20 -4 32 7 12 11 27 14 52 9 20 -4 37 -2 41 4 10 16 65 12 65 -5 0 -12 6 -11 33 5 40 25 91 26 115 2z m519 -299 c-4 -3 -10 -3 -14 0 -3 4 0 7 7 7 7 0 10 -3 7 -7z m-862 -23 c4 -6 -2 -9 -14 -7 -29 4 -39 17 -13 17 11 0 24 -5 27 -10z m-135 -10 c13 -9 13 -11 0 -20 -31 -20 -120 -49 -135 -44 -22 9 -8 23 49 50 57 27 65 28 86 14z m1077 -33 c27 -45 44 -143 34 -192 l-9 -40 -1 40 c-1 45 -29 106 -50 113 -11 4 -12 -1 -7 -19 4 -13 9 -40 13 -59 l6 -35 -27 24 c-14 14 -28 22 -31 20 -8 -9 18 -79 30 -79 7 0 20 -9 29 -19 13 -14 -2 -9 -47 15 -46 24 -80 35 -112 36 -45 1 -45 1 -40 32 3 17 1 54 -4 81 -9 47 -8 52 16 77 27 29 47 34 130 37 48 1 52 -1 70 -32z m-497 -30 c0 -2 -17 -19 -37 -38 l-38 -34 34 38 c33 34 41 42 41 34z m-170 -21 c0 -3 -5 -8 -12 -12 -7 -4 -8 -3 -4 4 7 12 16 16 16 8z m-260 -46 c15 -4 -6 -7 -50 -6 -41 0 -63 2 -47 4 15 2 25 8 21 13 -5 9 12 7 76 -11z m255 10 c-3 -5 -12 -10 -18 -10 -7 0 -6 4 3 10 19 12 23 12 15 0z m-518 -6 c-3 -3 -12 -4 -19 -1 -8 3 -5 6 6 6 11 1 17 -2 13 -5z m1188 -44 l5 -35 -14 35 c-18 42 -20 58 -6 44 5 -5 12 -25 15 -44z m-635 35 c0 -6 -56 -35 -67 -35 -4 1 8 9 27 20 39 22 40 22 40 15z m290 -9 c0 -3 -5 -8 -12 -12 -7 -4 -8 -3 -4 4 7 12 16 16 16 8z m-730 -32 c0 -9 -28 -3 -46 11 -17 13 -16 14 14 4 17 -6 32 -13 32 -15z m45 16 c13 -6 15 -9 5 -9 -8 0 -22 4 -30 9 -18 12 -2 12 25 0z m129 0 c-11 -4 -36 -5 -55 0 -31 7 -29 8 21 8 39 1 49 -2 34 -8z m136 6 c0 -2 -16 -6 -35 -8 -19 -2 -35 0 -35 4 0 4 16 8 35 8 19 0 35 -2 35 -4z m-405 -16 c13 -6 15 -9 5 -9 -8 0 -22 4 -30 9 -18 12 -2 12 25 0z m283 -20 c12 0 22 -4 22 -10 0 -11 -57 -2 -80 12 -11 7 -8 8 10 4 14 -3 35 -6 48 -6z m272 5 c0 -2 -10 -9 -22 -15 -22 -11 -22 -10 -4 4 21 17 26 19 26 11z m-305 -40 l60 -15 -50 6 c-27 3 -61 8 -75 11 -14 2 -51 7 -83 10 -31 3 -59 8 -61 12 -7 10 141 -7 209 -24z m98 18 c-7 -2 -19 -2 -25 0 -7 3 -2 5 12 5 14 0 19 -2 13 -5z m-316 -10 c-4 -3 -10 -3 -14 0 -3 4 0 7 7 7 7 0 10 -3 7 -7z m56 -10 c-7 -2 -21 -2 -30 0 -10 3 -4 5 12 5 17 0 24 -2 18 -5z m527 3 c0 -2 -8 -10 -17 -17 -16 -13 -17 -12 -4 4 13 16 21 21 21 13z m-460 -21 c0 -16 -9 -19 -35 -9 -13 5 -14 8 -3 15 20 13 38 11 38 -6z m255 -5 c-11 -5 -29 -8 -40 -8 -16 0 -15 2 5 8 34 11 60 11 35 0z m658 -11 c85 -43 136 -88 147 -130 6 -22 8 -43 5 -48 -3 -5 2 -17 11 -25 9 -9 11 -16 4 -16 -15 0 -39 60 -32 79 3 8 1 12 -5 8 -7 -5 -9 1 -5 15 3 13 1 19 -5 15 -6 -4 -13 0 -17 8 -3 8 -11 15 -18 15 -9 0 -9 -3 0 -12 7 -7 12 -21 12 -32 -1 -16 -5 -13 -19 14 -11 19 -17 39 -14 44 4 5 1 6 -5 2 -6 -4 -8 -14 -5 -23 4 -11 3 -14 -5 -9 -14 8 -15 -18 -3 -49 5 -11 6 -26 3 -34 -4 -10 -10 -7 -24 10 l-19 24 11 -24 c11 -21 10 -23 -5 -17 -14 5 -15 3 -8 -6 6 -7 13 -26 17 -43 4 -16 3 -25 -1 -20 -4 6 -17 10 -28 10 -11 0 -23 -4 -27 -10 -5 -6 -8 -5 -8 3 0 6 -8 12 -17 12 -15 0 -16 -2 -3 -10 8 -5 10 -10 5 -10 -6 0 -17 6 -24 13 -11 10 -14 10 -18 0 -3 -7 -14 -13 -26 -13 -21 1 -21 1 -4 14 17 13 16 14 -7 12 -13 0 -22 -4 -19 -8 13 -22 -16 -4 -38 24 -25 30 -30 32 -98 32 -49 1 -71 -3 -71 -11 0 -6 -3 -14 -8 -17 -13 -8 2 88 18 110 8 12 25 24 38 28 12 4 29 20 37 36 19 37 30 43 90 51 100 12 145 10 188 -12z m-493 6 c0 -6 -97 -55 -107 -55 -4 1 17 14 47 30 61 32 60 32 60 25z m-583 -11 c-3 -3 -12 -4 -19 -1 -8 3 -5 6 6 6 11 1 17 -2 13 -5z m331 -1 c-16 -2 -40 -2 -55 0 -16 2 -3 4 27 4 30 0 43 -2 28 -4z m30 -20 c-10 -2 -26 -2 -35 0 -10 3 -2 5 17 5 19 0 27 -2 18 -5z m-193 -35 c49 -13 56 -16 25 -12 -25 4 -60 7 -77 8 -18 0 -33 4 -33 8 0 3 -10 4 -22 0 -13 -3 -19 -1 -15 6 4 5 1 13 -5 15 -22 10 55 -6 127 -25z m65 22 c12 -8 12 -10 -3 -16 -20 -7 -47 1 -47 16 0 12 30 13 50 0z m-223 -27 c-4 -3 -10 -3 -14 0 -3 4 0 7 7 7 7 0 10 -3 7 -7z m40 -9 c-3 -3 -12 -4 -19 -1 -8 3 -5 6 6 6 11 1 17 -2 13 -5z m331 -1 c-10 -2 -26 -2 -35 0 -10 3 -2 5 17 5 19 0 27 -2 18 -5z m0 -20 c-10 -2 -26 -2 -35 0 -10 3 -2 5 17 5 19 0 27 -2 18 -5z m188 -8 c-11 -8 -25 -15 -30 -15 -6 1 0 7 14 15 32 19 40 18 16 0z m-323 -2 c-13 -2 -33 -2 -45 0 -13 2 -3 4 22 4 25 0 35 -2 23 -4z m77 -13 c11 -8 7 -9 -15 -4 -37 8 -45 14 -19 14 10 0 26 -5 34 -10z m-217 -7 c-7 -2 -19 -2 -25 0 -7 3 -2 5 12 5 14 0 19 -2 13 -5z m304 1 c-3 -3 -12 -4 -19 -1 -8 3 -5 6 6 6 11 1 17 -2 13 -5z m752 -49 c0 -5 -4 -3 -9 5 -5 8 -9 22 -9 30 0 16 17 -16 18 -35z m-822 29 c-3 -3 -12 -4 -19 -1 -8 3 -5 6 6 6 11 1 17 -2 13 -5z m-234 -11 c-7 -2 -19 -2 -25 0 -7 3 -2 5 12 5 14 0 19 -2 13 -5z m90 -20 c-7 -2 -19 -2 -25 0 -7 3 -2 5 12 5 14 0 19 -2 13 -5z m74 -9 c-3 -3 -12 -4 -19 -1 -8 3 -5 6 6 6 11 1 17 -2 13 -5z m200 -1 c-4 -3 -10 -3 -14 0 -3 4 0 7 7 7 7 0 10 -3 7 -7z m-49 -10 c-16 -2 -40 -2 -55 0 -16 2 -3 4 27 4 30 0 43 -2 28 -4z m430 -15 c14 -14 16 -42 2 -33 -6 4 -7 -1 -3 -11 5 -13 3 -15 -7 -9 -9 6 -11 4 -5 -5 6 -10 11 -9 21 4 10 15 15 15 33 4 12 -7 21 -16 21 -19 0 -3 13 -26 30 -50 46 -68 38 -115 -12 -69 -12 11 -19 20 -15 20 4 0 -10 16 -30 35 -20 19 -44 35 -53 34 -10 0 -9 -3 5 -9 34 -14 68 -57 61 -77 -7 -17 -8 -17 -20 -1 -8 11 -17 14 -26 8 -7 -4 -24 -6 -37 -4 -17 3 -22 1 -17 -7 5 -9 2 -10 -9 -6 -10 4 -17 1 -17 -6 0 -8 -3 -9 -8 -1 -4 6 -20 10 -37 9 -16 -1 -40 2 -52 6 -16 6 -23 5 -23 -4 0 -8 -2 -9 -8 -1 -4 6 -15 10 -24 8 -22 -3 -23 19 -2 36 8 8 27 34 41 59 29 50 60 85 83 94 27 10 96 7 108 -5z m279 -15 c-4 -3 -7 0 -7 7 0 7 3 10 7 7 3 -4 3 -10 0 -14z m126 -30 c-5 -12 -7 -12 -14 -1 -13 20 -11 28 5 22 8 -3 12 -12 9 -21z m-186 -10 c-4 -3 -10 -3 -14 0 -3 4 0 7 7 7 7 0 10 -3 7 -7z m-37 -7 c0 -3 -5 -8 -12 -12 -7 -4 -8 -3 -4 4 7 12 16 16 16 8z m-30 -60 c0 -2 -7 -7 -16 -10 -8 -3 -12 -2 -9 4 6 10 25 14 25 6z m-93 -98 c-3 -8 -6 -5 -6 6 -1 11 2 17 5 13 3 -3 4 -12 1 -19z m-90 -5 c-4 -3 -7 0 -7 7 0 7 3 10 7 7 3 -4 3 -10 0 -14z"/> <path d="M2612 1448 c3 -7 16 -19 30 -27 23 -13 29 -13 53 3 15 10 24 20 21 24 -4 3 -12 0 -18 -6 -16 -16 -43 -15 -58 3 -15 18 -33 20 -28 3z"/> <path d="M2850 1442 c0 -17 25 -32 55 -32 31 0 55 15 55 34 0 6 -5 5 -12 -2 -15 -15 -64 -16 -73 -2 -7 12 -25 13 -25 2z"/> <path d="M2720 1390 c0 -6 11 -15 25 -20 27 -10 75 2 75 20 0 6 -9 5 -25 -2 -19 -8 -31 -8 -50 0 -16 7 -25 8 -25 2z"/> <path d="M3497 863 c-11 -10 -8 -20 6 -20 6 0 23 -3 37 -6 l25 -7 -25 12 c-14 7 -28 16 -31 20 -3 5 -8 5 -12 1z"/> <path d="M2753 993 c4 -3 10 -3 14 0 3 4 0 7 -7 7 -7 0 -10 -3 -7 -7z"/> <path d="M3385 690 c10 -11 20 -20 23 -20 3 0 -3 9 -13 20 -10 11 -20 20 -23 20 -3 0 3 -9 13 -20z"/> <path d="M3870 1660 c0 -5 -6 -7 -14 -4 -8 3 -16 1 -20 -4 -8 -13 32 -8 46 6 9 9 9 12 0 12 -7 0 -12 -4 -12 -10z"/> <path d="M1070 1639 c0 -28 31 -79 48 -79 7 0 20 16 28 35 9 22 19 33 26 29 7 -5 8 -3 3 6 -6 10 -14 7 -30 -14 l-22 -28 -22 36 c-26 42 -31 44 -31 15z m40 -53 c0 -6 -7 -2 -15 8 -8 11 -15 25 -15 30 0 6 7 2 15 -8 8 -11 15 -25 15 -30z"/> <path d="M3541 1651 c-10 -6 1 -8 30 -4 24 3 46 7 48 9 10 9 -65 3 -78 -5z"/> <path d="M848 1628 c11 -14 10 -17 -10 -21 -22 -4 -22 -4 3 -6 14 0 34 -8 45 -16 10 -8 22 -15 27 -15 11 0 8 28 -5 36 -7 4 -8 3 -4 -4 13 -21 -7 -13 -38 16 -17 15 -25 19 -18 10z"/> <path d="M3494 1625 c-18 -14 -18 -14 11 -14 17 0 24 3 17 6 -6 2 -10 9 -6 14 8 13 1 11 -22 -6z"/> <path d="M3604 1628 c-4 -7 -3 -8 4 -4 7 4 12 9 12 12 0 8 -9 4 -16 -8z"/> <path d="M3804 1628 c-4 -7 -3 -8 4 -4 7 4 12 9 12 12 0 8 -9 4 -16 -8z"/> <path d="M940 1620 c0 -7 3 -10 7 -7 3 4 3 10 0 14 -4 3 -7 0 -7 -7z"/> <path d="M3543 1623 c4 -3 10 -3 14 0 3 4 0 7 -7 7 -7 0 -10 -3 -7 -7z"/> <path d="M3570 1609 c0 -5 5 -7 10 -4 6 3 10 8 10 11 0 2 -4 4 -10 4 -5 0 -10 -5 -10 -11z"/> <path d="M1320 1602 c8 -5 26 -13 40 -16 17 -5 20 -4 10 2 -8 5 -26 13 -40 16 -17 5 -20 4 -10 -2z"/> <path d="M3823 1603 c4 -3 10 -3 14 0 3 4 0 7 -7 7 -7 0 -10 -3 -7 -7z"/> <path d="M3853 1583 c4 -3 10 -3 14 0 3 4 0 7 -7 7 -7 0 -10 -3 -7 -7z"/> <path d="M790 1569 c-11 -7 -4 -8 25 -3 50 8 58 14 19 14 -16 0 -36 -5 -44 -11z"/> <path d="M1155 1560 c-22 -5 -48 -6 -59 -3 -13 4 -16 1 -11 -7 5 -9 4 -11 -3 -6 -7 4 -20 2 -29 -3 -16 -9 -15 -10 8 -11 14 0 40 5 57 11 17 6 41 9 54 7 23 -4 23 -4 -4 -18 -35 -17 -37 -32 -3 -17 23 11 26 15 24 34 0 4 8 10 18 14 24 10 0 9 -52 -1z"/> <path d="M2280 1566 c0 -2 8 -10 18 -17 15 -13 16 -12 3 4 -13 16 -21 21 -21 13z"/> <path d="M980 1550 c0 -7 3 -10 7 -7 3 4 3 10 0 14 -4 3 -7 0 -7 -7z"/> <path d="M2014 1528 l-19 -23 23 19 c21 18 27 26 19 26 -2 0 -12 -10 -23 -22z"/> <path d="M3620 1527 c-14 -13 -32 -32 -40 -42 -8 -11 2 -5 21 13 48 44 61 41 18 -5 -33 -36 -33 -36 -4 -16 17 12 39 31 49 42 19 21 19 21 1 15 -13 -5 -16 -4 -11 4 12 19 -7 13 -34 -11z"/> <path d="M840 1529 c0 -5 5 -7 10 -4 6 3 10 8 10 11 0 2 -4 4 -10 4 -5 0 -10 -5 -10 -11z"/> <path d="M938 1517 c3 -13 1 -18 -6 -14 -5 4 -21 3 -34 -2 -21 -9 -20 -10 13 -10 20 -1 42 -8 49 -16 15 -19 8 -19 -53 0 -26 8 -45 10 -42 5 3 -5 21 -12 40 -16 38 -7 45 -19 17 -28 -10 -4 -19 -13 -19 -21 0 -20 41 -19 58 1 7 9 21 13 32 10 15 -4 17 -2 8 7 -14 14 -15 30 -1 22 12 -7 12 32 0 60 -8 19 -9 19 -9 1 -1 -19 -1 -19 -15 -1 -19 27 -45 28 -38 2z m31 -17 c11 -24 11 -24 -3 -6 -9 11 -16 24 -16 30 0 12 5 7 19 -24z m28 -27 c-4 -3 -7 0 -7 7 0 7 3 10 7 7 3 -4 3 -10 0 -14z m-41 -48 c-11 -8 -24 -15 -30 -15 -5 0 -1 7 10 15 10 8 24 14 29 14 6 0 1 -6 -9 -14z"/> <path d="M1306 1521 c-3 -4 6 -6 19 -3 14 2 25 6 25 8 0 8 -39 4 -44 -5z"/> <path d="M1110 1511 c0 -5 5 -13 10 -16 6 -3 10 -2 10 4 0 5 -4 13 -10 16 -5 3 -10 2 -10 -4z"/> <path d="M1061 1507 c2 -2 18 -11 34 -21 l30 -17 -24 20 c-13 12 -28 21 -34 21 -6 0 -8 -1 -6 -3z"/> <path d="M1154 1489 c-17 -19 -16 -19 14 -8 36 12 38 15 18 22 -8 3 -22 -3 -32 -14z"/> <path d="M3680 1490 c0 -7 3 -10 7 -7 3 4 3 10 0 14 -4 3 -7 0 -7 -7z"/> <path d="M1204 1478 c-4 -7 -3 -8 4 -4 12 7 16 16 8 16 -3 0 -8 -5 -12 -12z"/> <path d="M1303 1483 c4 -3 10 -3 14 0 3 4 0 7 -7 7 -7 0 -10 -3 -7 -7z"/> <path d="M1981 1437 c-36 -14 -59 -30 -70 -49 -9 -16 -29 -32 -45 -36 -16 -4 -31 -13 -33 -19 -3 -7 8 -7 34 2 32 12 42 11 63 -1 l25 -15 -23 20 c-22 19 -22 21 -7 45 16 24 89 56 127 56 10 0 21 -7 25 -16 4 -11 8 -12 13 -4 4 6 24 15 44 20 40 9 59 -2 72 -43 4 -12 18 -39 30 -59 13 -21 24 -39 24 -42 0 -2 -18 1 -39 6 -35 9 -43 7 -77 -16 -21 -14 -49 -26 -62 -26 -28 0 -75 -44 -70 -67 4 -20 37 -31 93 -31 l40 0 -45 10 c-25 6 -50 14 -57 20 -20 16 7 46 49 53 20 4 49 16 64 28 24 19 31 20 82 9 78 -16 102 -35 102 -77 l0 -35 -96 0 c-61 0 -93 -4 -89 -10 7 -12 56 -13 144 -4 67 7 69 10 51 76 -8 29 -18 39 -45 48 -19 6 -35 18 -35 26 0 8 -11 31 -24 52 -12 20 -26 47 -30 60 -11 34 -39 45 -87 32 -30 -8 -45 -8 -52 -1 -15 15 -32 12 -96 -12z"/> <path d="M3723 1395 c0 -38 2 -53 4 -32 2 20 2 52 0 70 -2 17 -4 1 -4 -38z"/> <path d="M3801 1444 c0 -11 3 -14 6 -6 3 7 2 16 -1 19 -3 4 -6 -2 -5 -13z"/> <path d="M3650 1416 c0 -20 2 -36 4 -36 8 0 12 61 4 66 -4 3 -8 -11 -8 -30z"/> <path d="M3903 1443 c4 -3 10 -3 14 0 3 4 0 7 -7 7 -7 0 -10 -3 -7 -7z"/> <path d="M3765 1430 c3 -5 8 -10 11 -10 3 0 2 5 -1 10 -3 6 -8 10 -11 10 -3 0 -2 -4 1 -10z"/> <path d="M3670 1410 c0 -7 3 -10 7 -7 3 4 3 10 0 14 -4 3 -7 0 -7 -7z"/> <path d="M3775 1399 c-4 -5 -1 -8 6 -7 6 2 14 -3 17 -11 3 -9 0 -11 -8 -6 -9 5 -11 4 -6 -4 9 -14 26 -5 26 14 0 16 -27 28 -35 14z"/> <path d="M3839 1393 c-13 -16 -12 -17 4 -4 16 13 21 21 13 21 -2 0 -10 -8 -17 -17z"/> <path d="M3682 1370 c0 -14 2 -19 5 -12 2 6 2 18 0 25 -3 6 -5 1 -5 -13z"/> <path d="M3864 1368 c-4 -7 -3 -8 4 -4 7 4 12 9 12 12 0 8 -9 4 -16 -8z"/> <path d="M2312 1350 c0 -14 2 -19 5 -12 2 6 2 18 0 25 -3 6 -5 1 -5 -13z"/> <path d="M3750 1340 c0 -5 7 -7 15 -4 8 4 15 8 15 10 0 2 -7 4 -15 4 -8 0 -15 -4 -15 -10z"/> <path d="M3800 1340 c0 -7 3 -10 7 -7 3 4 3 10 0 14 -4 3 -7 0 -7 -7z"/> <path d="M1240 1331 c0 -6 4 -13 10 -16 6 -3 7 1 4 9 -7 18 -14 21 -14 7z"/> <path d="M1230 1290 c0 -7 3 -10 7 -7 3 4 3 10 0 14 -4 3 -7 0 -7 -7z"/> <path d="M1250 1272 c0 -6 9 -12 20 -15 11 -3 20 -3 20 -1 0 2 -9 8 -20 14 -11 6 -20 7 -20 2z"/> <path d="M2194 1218 c-4 -7 -3 -8 4 -4 12 7 16 16 8 16 -3 0 -8 -5 -12 -12z"/> <path d="M2053 1193 c4 -3 10 -3 14 0 3 4 0 7 -7 7 -7 0 -10 -3 -7 -7z"/> <path d="M2007 1159 c7 -7 15 -10 18 -7 3 3 -2 9 -12 12 -14 6 -15 5 -6 -5z"/> <path d="M1905 1150 c-19 -8 -19 -9 3 -9 12 -1 22 4 22 9 0 6 -1 10 -2 9 -2 0 -12 -4 -23 -9z"/> <path d="M2045 1140 c4 -6 11 -8 16 -5 14 9 11 15 -7 15 -8 0 -12 -5 -9 -10z"/> <path d="M1750 1130 c-12 -8 -12 -10 5 -9 11 0 38 4 60 8 l40 9 -45 1 c-25 0 -52 -4 -60 -9z"/> <path d="M2173 1133 c32 -2 81 -2 110 0 29 2 3 3 -58 3 -60 0 -84 -1 -52 -3z"/> <path d="M1858 1113 c7 -3 16 -2 19 1 4 3 -2 6 -13 5 -11 0 -14 -3 -6 -6z"/> <path d="M1903 1113 c4 -3 10 -3 14 0 3 4 0 7 -7 7 -7 0 -10 -3 -7 -7z"/> <path d="M1633 1103 c4 -3 10 -3 14 0 3 4 0 7 -7 7 -7 0 -10 -3 -7 -7z"/> <path d="M778 858 c6 -6 18 -8 28 -6 14 3 12 5 -9 10 -19 3 -25 2 -19 -4z"/> <path d="M2480 860 c8 -5 20 -10 25 -10 6 0 3 5 -5 10 -8 5 -19 10 -25 10 -5 0 -3 -5 5 -10z"/> <path d="M2535 840 c19 -8 73 -14 64 -6 -2 2 -22 6 -44 9 -28 5 -34 4 -20 -3z"/> <path d="M2583 813 c4 -3 10 -3 14 0 3 4 0 7 -7 7 -7 0 -10 -3 -7 -7z"/> <path d="M2490 785 c7 -9 15 -13 17 -11 7 7 -7 26 -19 26 -6 0 -6 -6 2 -15z"/> <path d="M980 780 c0 -7 3 -10 7 -7 3 4 3 10 0 14 -4 3 -7 0 -7 -7z"/> <path d="M2484 741 c0 -11 5 -17 13 -14 7 3 13 11 13 19 0 8 -6 14 -13 14 -7 0 -13 -8 -13 -19z"/> <path d="M2520 740 c0 -5 5 -10 10 -10 6 0 10 5 10 10 0 6 -4 10 -10 10 -5 0 -10 -4 -10 -10z"/> <path d="M2550 740 c0 -4 9 -10 20 -13 11 -3 20 -2 20 3 0 4 -9 10 -20 13 -11 3 -20 2 -20 -3z"/> <path d="M2604 729 c-3 -5 9 -9 25 -9 17 0 31 3 31 8 0 10 -49 12 -56 1z"/> <path d="M2683 723 c9 -2 23 -2 30 0 6 3 -1 5 -18 5 -16 0 -22 -2 -12 -5z"/> <path d="M3055 720 c-3 -5 -1 -10 4 -10 6 0 11 5 11 10 0 6 -2 10 -4 10 -3 0 -8 -4 -11 -10z"/> <path d="M3905 720 c-3 -5 -1 -10 4 -10 6 0 11 5 11 10 0 6 -2 10 -4 10 -3 0 -8 -4 -11 -10z"/> <path d="M1054 696 c16 -14 47 -29 68 -32 21 -4 38 -10 38 -14 0 -17 198 -10 320 10 68 12 127 23 129 26 16 16 -23 15 -97 -1 -122 -28 -315 -27 -392 2 -30 12 -64 24 -75 28 -15 5 -12 0 9 -19z"/> <path d="M1890 703 c-8 -3 -26 -14 -39 -24 -13 -11 -36 -19 -52 -19 -15 0 -31 -4 -34 -10 -3 -5 -16 -10 -29 -10 -22 0 -86 -53 -86 -72 0 -6 -11 -23 -25 -40 -40 -47 -34 -75 23 -100 74 -34 275 -27 435 13 31 8 37 14 31 27 -3 9 -12 31 -18 47 -6 17 -25 49 -41 70 -17 22 -39 53 -49 68 -21 35 -84 61 -116 50z m59 -24 c17 -6 31 -14 31 -17 0 -4 17 -29 38 -57 20 -27 45 -69 54 -92 18 -48 17 -49 -44 -44 -16 1 -28 -3 -28 -8 0 -6 -5 -11 -11 -11 -6 0 -8 7 -5 16 3 8 2 12 -4 9 -6 -3 -10 0 -11 7 -1 7 -4 2 -8 -12 -7 -23 -8 -23 -15 13 -4 20 -12 37 -18 37 -6 0 -8 -12 -4 -32 5 -30 4 -33 -19 -34 -18 -1 -25 3 -25 16 0 11 -4 22 -10 25 -13 8 -13 42 0 50 6 4 7 -1 3 -12 -6 -15 -5 -16 9 -3 8 8 13 23 10 33 -3 13 -7 15 -12 7 -4 -6 -10 -11 -14 -11 -18 3 -29 0 -23 -5 3 -4 -4 -15 -16 -25 -12 -10 -16 -18 -9 -19 6 0 12 5 12 11 0 7 9 0 20 -14 24 -31 26 -44 3 -26 -15 12 -16 12 -11 -3 8 -19 -11 -29 -41 -21 -21 5 -27 21 -13 39 4 5 -3 -1 -15 -13 -28 -29 -37 -29 -22 0 9 17 6 16 -16 -7 l-27 -30 -13 24 c-7 13 -20 25 -29 26 -9 1 -14 -2 -10 -7 3 -5 2 -9 -3 -10 -4 0 -16 -2 -26 -4 -17 -3 -17 -2 -3 18 9 12 25 38 35 57 34 63 58 78 156 97 17 3 41 14 54 24 28 22 37 23 80 8z"/> <path d="M1908 607 c-2 -18 -1 -44 3 -58 7 -23 7 -23 8 4 1 16 5 26 11 22 11 -7 13 24 4 49 -10 26 -22 18 -26 -17z"/> <path d="M1889 501 c7 -5 10 -14 7 -20 -4 -6 0 -11 9 -11 13 0 14 4 5 20 -6 11 -16 20 -23 20 -8 0 -8 -3 2 -9z"/> <path d="M2054 478 c-4 -7 -3 -8 4 -4 12 7 16 16 8 16 -3 0 -8 -5 -12 -12z"/> <path d="M1805 470 c3 -5 8 -10 11 -10 3 0 2 5 -1 10 -3 6 -8 10 -11 10 -3 0 -2 -4 1 -10z"/> <path d="M3108 693 c7 -3 16 -2 19 1 4 3 -2 6 -13 5 -11 0 -14 -3 -6 -6z"/> <path d="M3705 670 l-50 -7 45 -1 c25 -1 52 3 60 8 8 5 11 9 5 8 -5 -1 -32 -4 -60 -8z"/> <path d="M1551 651 c-8 -6 -9 -11 -3 -15 6 -3 14 -1 17 5 9 14 2 20 -14 10z"/> <path d="M1585 650 c3 -5 8 -10 11 -10 2 0 4 5 4 10 0 6 -5 10 -11 10 -5 0 -7 -4 -4 -10z"/> <path d="M1090 639 c0 -6 6 -9 13 -6 7 3 21 -1 32 -9 10 -8 26 -14 34 -14 11 1 9 5 -7 13 -12 7 -19 16 -16 20 4 4 -7 7 -24 7 -18 0 -32 -5 -32 -11z"/> <path d="M1418 633 c12 -2 32 -2 45 0 12 2 2 4 -23 4 -25 0 -35 -2 -22 -4z"/> <path d="M1498 633 c6 -2 18 -2 25 0 6 3 1 5 -13 5 -14 0 -19 -2 -12 -5z"/> <path d="M1266 621 c-58 -4 -75 -9 -65 -16 22 -16 166 -7 173 11 3 9 -1 13 -12 12 -9 -1 -53 -4 -96 -7z"/> <path d="M1553 613 c4 -3 10 -3 14 0 3 4 0 7 -7 7 -7 0 -10 -3 -7 -7z"/> <path d="M2483 591 c-34 -9 -71 -25 -82 -35 -22 -20 -28 -60 -11 -71 5 -3 60 -11 122 -16 111 -11 168 -4 168 19 0 21 -74 102 -102 111 -17 6 -31 11 -32 10 -1 -1 -29 -9 -63 -18z m128 -33 c44 -48 53 -67 35 -74 -20 -8 -51 0 -49 12 1 6 -12 9 -28 8 -16 -1 -29 2 -29 6 0 5 -9 7 -20 5 -11 -2 -20 0 -20 6 0 12 -37 12 -61 -2 -12 -6 -28 -8 -37 -4 -28 11 32 57 64 49 14 -4 24 -2 24 4 0 12 22 19 63 21 20 1 37 -9 58 -31z"/> <path d="M2611 517 c7 -15 16 -27 21 -27 14 0 9 16 -13 36 -21 19 -21 19 -8 -9z"/> <path d="M3526 583 c-23 -12 -63 -14 -210 -11 -99 1 -171 2 -158 0 14 -2 22 -10 22 -23 0 -15 7 -19 35 -19 22 0 35 5 35 13 0 9 17 12 67 9 91 -5 204 6 227 24 28 20 16 25 -18 7z m-319 -30 c-4 -3 -10 -3 -14 0 -3 4 0 7 7 7 7 0 10 -3 7 -7z"/> <path d="M1318 583 c6 -2 18 -2 25 0 6 3 1 5 -13 5 -14 0 -19 -2 -12 -5z"/> <path d="M3260 532 c0 -5 28 -10 62 -11 35 -1 59 1 55 6 -11 11 -117 16 -117 5z"/> <path d="M2386 460 c5 -5 68 -12 139 -14 l130 -5 -100 9 c-55 5 -118 12 -139 15 -26 3 -37 2 -30 -5z"/> <path d="M2385 433 c13 -14 95 -22 120 -12 13 5 1 8 -37 8 -31 1 -65 4 -75 7 -12 5 -15 4 -8 -3z"/> <path d="M1610 415 c22 -27 109 -38 244 -31 72 3 135 11 141 17 7 7 -2 8 -30 3 -73 -14 -266 -9 -318 9 -37 12 -46 12 -37 2z"/> <path d="M2068 413 c7 -3 16 -2 19 1 4 3 -2 6 -13 5 -11 0 -14 -3 -6 -6z"/> <path d="M2018 403 c6 -2 18 -2 25 0 6 3 1 5 -13 5 -14 0 -19 -2 -12 -5z"/> <path d="M1640 375 c0 -15 30 -34 44 -29 9 3 16 1 16 -4 0 -6 25 -14 55 -17 43 -6 61 -4 80 9 13 9 33 16 45 16 11 0 20 4 20 10 0 5 -50 9 -120 9 -66 0 -124 2 -130 6 -5 3 -10 3 -10 0z"/> <path d="M1855 330 c-4 -6 5 -10 19 -10 14 0 26 5 26 10 0 6 -9 10 -19 10 -11 0 -23 -4 -26 -10z"/> <path d="M1858 303 c7 -3 16 -2 19 1 4 3 -2 6 -13 5 -11 0 -14 -3 -6 -6z"/> </g> </svg> 