 <svg  version="1.0" xmlns="http://www.w3.org/2000/svg"  width="450.000000pt" height="253.000000pt" viewBox="0 0 450.000000 253.000000"  preserveAspectRatio="xMidYMid meet">  <g transform="translate(0.000000,253.000000) scale(0.100000,-0.100000)" fill="#ffffff" stroke="none"> <path d="M4350 2347 c-11 -19 -31 -40 -45 -47 -14 -7 -25 -18 -25 -23 0 -6 8 -3 18 6 10 10 28 17 39 17 16 0 20 5 16 19 -11 42 44 62 115 42 17 -5 32 -6 32 -1 0 11 -38 20 -88 20 -38 0 -45 -4 -62 -33z"/> <path d="M4282 2249 c2 -8 23 -24 47 -36 23 -12 48 -27 56 -33 9 -7 15 -8 20 0 3 5 -1 10 -10 10 -8 0 -18 7 -21 15 -4 8 -17 15 -30 15 -13 0 -34 10 -45 21 -12 12 -20 15 -17 8z"/> <path d="M4420 2181 c0 -5 11 -8 25 -8 13 0 22 3 19 8 -3 5 -14 9 -25 9 -10 0 -19 -4 -19 -9z"/> <path d="M831 2135 c-21 -19 -43 -35 -49 -35 -6 0 -27 -15 -46 -34 -51 -48 -46 -106 9 -106 12 0 26 -5 32 -11 16 -16 121 -22 183 -11 34 6 59 7 64 1 14 -13 53 -11 111 7 l50 14 -45 -6 c-25 -3 -58 -6 -75 -5 -16 1 -52 0 -80 -1 -119 -6 -183 -2 -199 11 -9 8 -29 14 -44 15 -20 1 -28 7 -30 25 -5 30 52 91 84 91 14 0 25 8 29 19 8 26 29 42 68 51 31 8 31 8 5 9 -19 1 -41 -11 -67 -34z"/> <path d="M958 2153 c17 -9 32 -20 32 -25 0 -14 27 -9 40 7 19 23 63 18 90 -10 13 -14 29 -25 35 -25 7 0 25 -10 40 -21 19 -16 26 -28 22 -46 -2 -13 0 -26 4 -29 11 -6 12 56 1 72 -4 6 -27 21 -51 34 -25 12 -51 29 -59 36 -18 18 -67 18 -85 0 -12 -12 -18 -12 -43 5 -16 10 -36 19 -44 18 -8 0 0 -8 18 -16z"/> <path d="M4480 2160 c0 -5 5 -10 10 -10 6 0 10 5 10 10 0 6 -4 10 -10 10 -5 0 -10 -4 -10 -10z"/> <path d="M1200 1975 c-11 -13 -10 -14 4 -9 9 3 16 10 16 15 0 13 -6 11 -20 -6z"/> <path d="M3662 1791 c-17 -17 -32 -34 -32 -40 0 -6 -11 -27 -25 -47 -14 -20 -25 -44 -25 -53 0 -9 8 -2 18 16 9 17 27 50 40 72 29 53 63 75 104 67 17 -3 36 -13 42 -22 9 -12 17 -13 39 -5 59 23 168 -18 197 -73 8 -17 26 -40 40 -52 28 -26 23 -43 -23 -78 -24 -18 -31 -18 -84 -7 -32 7 -79 12 -105 12 -26 -1 -64 6 -85 15 -23 11 -58 16 -89 15 -29 -2 -55 2 -58 8 -4 6 -12 11 -19 11 -6 0 -4 -7 6 -17 13 -13 35 -18 83 -18 36 -1 68 -6 72 -11 4 -6 30 -11 57 -12 28 -1 85 -7 127 -14 76 -11 77 -11 112 16 42 32 45 54 12 93 -12 15 -28 38 -35 50 -6 12 -32 35 -58 50 -37 21 -60 27 -112 28 -36 1 -76 7 -88 13 -37 20 -76 14 -111 -17z"/> <path d="M2210 1761 c-65 -16 -239 -158 -224 -182 3 -6 14 1 24 18 20 32 86 93 100 93 6 0 20 10 32 22 12 12 45 30 73 39 49 17 46 23 -5 10z"/> <path d="M2285 1751 c11 -5 29 -18 39 -30 12 -14 32 -21 55 -22 49 0 125 -39 129 -65 2 -13 14 -23 35 -30 18 -5 38 -21 47 -36 14 -26 13 -29 -6 -49 -27 -26 -90 -34 -164 -21 -34 6 -59 7 -66 1 -7 -5 -41 -12 -76 -16 -53 -5 -71 -2 -105 16 -33 16 -47 19 -68 11 -59 -22 -97 -10 -108 35 -4 19 -5 19 -6 -2 -1 -21 44 -67 58 -58 18 10 103 16 114 7 29 -24 85 -30 146 -16 35 8 80 12 104 9 97 -14 168 -1 187 34 17 33 2 66 -41 90 -21 12 -39 28 -39 35 0 18 -87 63 -132 69 -20 2 -50 14 -66 26 -17 11 -36 21 -44 20 -7 0 -4 -4 7 -8z"/> <path d="M13 1723 c-6 -5 12 -8 39 -9 40 0 55 -5 69 -22 9 -12 25 -22 34 -22 9 0 30 -13 47 -30 16 -16 40 -30 53 -30 12 0 30 -10 39 -22 l17 -23 -11 23 c-6 12 -25 28 -43 35 -18 8 -38 21 -46 30 -7 10 -17 17 -22 17 -5 0 -28 12 -50 27 -41 27 -104 40 -126 26z"/> <path d="M286 1525 c-13 -19 -13 -23 -2 -19 8 3 16 14 19 25 7 25 3 24 -17 -6z"/> <path d="M170 1511 c-27 -15 -91 -23 -104 -12 -7 6 -24 7 -42 2 -56 -15 74 -22 137 -7 31 8 63 10 70 5 7 -4 18 -5 23 -1 23 13 -60 26 -84 13z"/> <path d="M2943 1289 c-57 -22 -115 -80 -134 -133 l-11 -31 -642 1 c-353 0 -647 4 -654 8 -7 4 -12 3 -12 -2 0 -5 -13 -12 -29 -14 -22 -3 -28 -1 -23 11 3 9 1 12 -6 7 -8 -4 -10 -2 -6 8 3 9 13 12 22 9 13 -5 14 -3 5 7 -14 16 -87 4 -109 -17 -18 -18 -27 -13 -18 11 4 9 13 15 20 12 7 -3 16 -1 19 4 3 5 -4 12 -16 15 -14 5 -27 0 -40 -14 -22 -24 -48 -19 -28 5 9 11 7 14 -10 14 -14 0 -21 -5 -19 -14 2 -8 -1 -15 -7 -15 -5 -1 -10 3 -10 8 0 17 -12 21 -36 12 -21 -9 -22 -10 -4 -11 20 -1 20 -1 1 -15 -20 -15 -41 -11 -31 6 12 19 -18 8 -39 -14 -19 -20 -30 -22 -103 -21 -61 1 -85 5 -98 17 -11 11 -25 15 -41 11 -15 -4 -24 -2 -24 6 0 6 6 8 13 4 9 -5 9 -4 0 6 -18 20 -61 21 -59 1 0 -9 -6 -16 -14 -16 -10 0 -14 8 -13 22 2 14 -5 27 -19 34 -18 10 -20 9 -15 -5 11 -28 -23 -32 -43 -6 -12 16 -23 20 -38 16 -13 -4 -19 -13 -15 -21 6 -17 -20 -30 -37 -20 -8 5 -8 11 1 21 9 11 7 14 -14 14 -14 0 -29 -4 -32 -10 -3 -5 -15 -10 -26 -10 -10 0 -19 -7 -19 -15 0 -12 -8 -14 -40 -9 -36 6 -40 4 -49 -18 -7 -19 -16 -25 -38 -23 -24 1 -74 -19 -108 -45 -5 -4 -37 -22 -70 -39 -32 -18 -80 -49 -105 -70 -25 -20 -62 -48 -82 -61 -35 -23 -48 -40 -30 -40 4 0 43 27 87 61 44 33 124 87 177 120 81 49 104 59 142 59 51 0 58 -12 21 -36 -14 -9 -22 -20 -19 -25 3 -5 3 -23 -1 -39 -5 -24 -12 -30 -34 -30 -49 0 -381 -228 -381 -262 0 -6 10 -4 24 6 l25 16 0 -128 c0 -130 9 -403 16 -502 3 -48 1 -58 -22 -82 -53 -56 -6 -25 67 43 41 38 116 101 167 139 50 38 94 73 97 78 3 5 19 7 36 4 24 -3 29 -8 25 -22 -7 -22 4 -70 16 -70 5 0 7 12 4 28 -2 15 -6 75 -9 134 l-6 108 33 0 c17 0 55 -3 83 -6 l52 -7 9 -111 c5 -61 6 -115 2 -120 -4 -4 -37 -11 -74 -14 -51 -4 -63 -7 -50 -15 16 -9 98 -3 130 9 9 4 15 19 15 39 0 67 -8 65 206 65 l194 0 0 -38 c0 -37 -1 -38 -30 -34 -16 2 -38 1 -47 -3 -10 -4 -36 -7 -58 -7 l-40 0 40 -6 c53 -9 29 -26 -35 -25 -40 1 -41 0 -12 -5 49 -10 34 -26 -20 -23 -29 1 -48 -2 -48 -8 0 -6 20 -11 46 -11 40 0 45 -2 34 -15 -7 -8 -16 -12 -21 -9 -13 7 -99 -7 -99 -16 0 -5 8 -7 18 -5 76 15 85 15 72 0 -8 -9 -21 -13 -35 -9 -25 6 -65 -3 -65 -14 0 -4 19 -6 41 -4 29 3 40 1 35 -7 -4 -6 -27 -11 -51 -11 -24 0 -47 -4 -50 -10 -4 -6 11 -7 41 -3 31 4 45 3 41 -4 -4 -6 -29 -13 -57 -17 -27 -4 -50 -11 -50 -17 0 -6 8 -8 18 -5 55 16 75 18 68 7 -4 -6 -3 -11 2 -11 5 0 21 18 36 40 14 21 53 71 86 110 56 65 64 70 100 70 l40 0 0 -49 c0 -32 5 -51 14 -54 23 -9 34 12 28 59 l-5 45 53 -3 53 -3 -2 -86 c-2 -70 1 -90 15 -103 9 -10 20 -14 25 -9 4 4 9 52 10 106 l1 98 99 -3 c83 -3 99 -6 99 -19 0 -9 6 -21 13 -28 16 -13 37 4 37 31 0 14 8 18 39 18 l40 0 -2 -70 c-1 -70 8 -95 30 -82 9 6 18 65 23 144 0 5 390 9 390 3 0 -1 -22 -30 -50 -66 -29 -38 -45 -66 -38 -68 7 -2 14 1 16 7 2 6 40 58 85 115 45 58 91 117 103 133 11 15 23 24 26 18 6 -8 -67 -107 -135 -184 -32 -36 -87 -114 -87 -122 0 -5 20 -8 44 -8 37 0 48 5 66 28 12 15 47 55 77 89 l56 62 61 -3 61 -3 84 -87 c77 -78 88 -86 122 -86 21 0 41 5 44 10 4 6 -10 10 -36 10 -41 0 -47 4 -159 118 l-117 118 29 35 30 34 46 -51 c153 -167 193 -214 187 -214 -4 0 -61 55 -126 122 -66 68 -119 118 -117 111 7 -24 242 -261 255 -256 22 8 15 22 -37 83 l-49 57 112 6 c62 4 149 7 194 7 l81 0 9 -62 c7 -54 11 -63 28 -63 18 0 20 6 17 65 -2 64 -2 66 22 65 14 -1 31 -7 39 -14 12 -9 18 -9 30 3 10 10 44 16 110 19 l96 4 6 -46 c3 -25 6 -66 7 -91 0 -44 10 -60 37 -60 11 0 13 15 8 78 -3 43 -9 86 -13 95 -5 15 2 17 65 17 61 0 71 -3 72 -17 1 -10 2 -27 3 -38 0 -11 9 -21 19 -23 14 -3 17 4 17 37 0 38 2 41 26 41 16 0 42 -14 64 -33 21 -17 60 -50 86 -71 27 -22 66 -62 87 -89 26 -32 44 -47 54 -43 8 3 29 7 46 8 24 1 19 3 -16 7 -26 3 -47 11 -47 16 0 11 3 12 61 14 25 1 38 5 34 11 -4 7 -28 8 -65 4 -38 -4 -60 -3 -64 5 -5 7 3 11 21 12 52 3 74 6 81 14 4 4 -21 5 -55 2 -52 -4 -64 -2 -78 13 -16 18 -15 19 27 23 39 4 38 4 -10 4 -36 0 -58 5 -69 16 -16 16 -15 17 20 17 21 0 37 5 37 11 0 8 -15 10 -49 5 -30 -4 -52 -2 -56 4 -4 6 8 10 30 10 20 0 34 4 31 9 -3 5 -26 7 -50 4 -25 -2 -47 0 -51 6 -4 7 8 11 34 11 24 0 41 5 41 11 0 8 -16 10 -50 5 -27 -4 -50 -3 -50 2 0 4 -16 7 -35 7 -32 -2 -35 1 -35 27 l0 28 178 0 178 0 10 -28 c6 -16 27 -41 47 -56 32 -25 44 -27 129 -28 93 -2 150 14 160 43 3 9 10 8 28 -1 31 -16 136 -97 210 -160 30 -25 66 -54 80 -63 29 -20 53 -22 28 -3 -16 12 -18 43 -20 360 -1 191 -6 352 -11 359 -4 7 -6 -139 -4 -324 2 -185 0 -344 -4 -355 -4 -10 -9 120 -10 291 -2 311 0 397 6 404 2 2 24 -11 49 -28 28 -18 46 -25 46 -17 0 7 -42 36 -92 65 -51 29 -129 74 -173 101 -44 27 -91 54 -105 60 -17 8 -21 13 -12 19 19 12 -23 79 -54 87 -17 4 -24 13 -24 30 0 13 -5 24 -11 24 -6 0 -8 -9 -4 -20 5 -15 2 -20 -13 -20 -22 0 -72 -36 -72 -51 0 -6 12 -1 26 10 44 35 96 25 128 -23 16 -25 16 -26 -24 -46 -50 -26 -65 -25 -84 2 -25 36 -20 41 36 34 57 -8 62 2 6 11 -39 6 -38 6 -59 4 -18 -1 -39 -60 -40 -112 0 -31 -1 -32 -9 -11 -5 12 -6 32 -1 45 14 38 23 82 15 74 -6 -6 -33 53 -34 74 0 4 20 12 44 18 25 6 48 15 51 21 3 5 14 10 23 10 19 0 120 -50 163 -81 15 -10 29 -19 32 -19 2 0 46 -25 96 -55 115 -69 191 -108 191 -97 0 4 -28 23 -62 42 -35 18 -114 65 -177 102 -132 80 -231 132 -231 121 0 -5 -9 11 -19 34 -24 51 -51 67 -103 59 -60 -10 -90 -33 -83 -66 l6 -26 -240 0 -240 1 -16 40 c-43 112 -251 178 -392 124z m262 -30 c28 -13 52 -25 54 -26 3 -2 -5 -13 -17 -26 -33 -35 -27 -45 7 -13 36 34 54 16 20 -20 -12 -13 -20 -27 -16 -30 3 -4 17 6 30 22 l24 27 16 -48 c10 -27 17 -70 17 -97 0 -57 6 -56 -157 -33 -193 27 -247 34 -310 41 -56 5 -63 8 -63 27 0 77 63 162 141 191 64 23 188 16 254 -15z m767 -76 c36 -34 36 -60 1 -74 -16 -6 -42 -17 -58 -24 -40 -16 -64 -1 -71 47 -7 43 15 61 95 77 3 1 18 -11 33 -26z m-3381 -16 c-1 -12 -15 -9 -19 4 -3 6 1 10 8 8 6 -3 11 -8 11 -12z m-31 -17 c0 -11 -7 -20 -15 -20 -15 0 -21 21 -8 33 12 13 23 7 23 -13z m160 10 c0 -12 -28 -25 -36 -17 -9 9 6 27 22 27 8 0 14 -5 14 -10z m116 -35 c-19 -38 -30 -43 -52 -20 -9 8 -24 15 -35 15 -10 0 -19 7 -19 15 0 19 14 19 34 0 10 -10 24 -13 41 -9 14 3 24 9 21 12 -3 3 -1 11 6 19 19 23 21 5 4 -32z m-346 20 c0 -8 -6 -15 -14 -15 -17 0 -28 14 -19 24 12 12 33 6 33 -9z m163 -10 c-2 -5 -20 -11 -40 -12 -35 -1 -36 0 -18 13 22 16 61 15 58 -1z m573 4 c10 -17 -13 -36 -27 -22 -12 12 -4 33 11 33 5 0 12 -5 16 -11z m-326 -14 c0 -8 -9 -15 -20 -15 -20 0 -26 11 -13 23 12 13 33 7 33 -8z m258 3 c-6 -18 -28 -21 -28 -4 0 9 7 16 16 16 9 0 14 -5 12 -12z m97 -8 c-5 -15 -3 -18 9 -14 9 3 16 1 16 -6 0 -6 5 -8 11 -4 6 3 14 2 18 -4 3 -6 19 -14 35 -18 21 -5 27 -4 22 5 -10 16 9 14 23 -3 23 -27 -42 -43 -72 -18 -9 8 -18 9 -21 4 -7 -12 -142 -7 -159 6 -16 12 -48 7 -58 -10 -5 -7 -6 -28 -3 -45 l6 -33 -56 0 -56 0 0 45 c0 32 -4 45 -14 45 -7 0 -16 9 -19 20 -5 20 -2 21 90 19 67 -1 96 -5 100 -15 2 -7 17 -17 31 -22 24 -8 31 -5 62 29 41 44 44 46 35 19z m53 8 c-3 -7 -11 -13 -18 -13 -7 0 -15 6 -17 13 -3 7 4 12 17 12 13 0 20 -5 18 -12z m92 3 c0 -14 -18 -23 -30 -16 -6 4 -8 11 -5 16 8 12 35 12 35 0z m-862 -28 c23 -25 25 -26 38 -9 9 13 20 16 42 11 22 -4 31 -2 35 9 8 20 24 20 61 1 16 -9 31 -13 34 -10 3 2 18 -3 34 -13 22 -13 32 -14 46 -5 10 6 30 9 45 6 20 -4 29 0 34 13 6 17 7 16 13 -2 8 -21 -10 -44 -33 -44 -9 0 -17 -5 -19 -10 -4 -14 -94 -15 -110 -2 -7 5 -29 9 -48 9 -20 -1 -43 2 -52 6 -10 3 -20 2 -23 -3 -7 -11 -46 -9 -62 3 -8 6 -18 6 -25 -1 -15 -11 -66 -8 -80 6 -8 8 26 62 39 62 3 0 17 -12 31 -27z m32 7 c0 -5 -4 -10 -10 -10 -5 0 -10 5 -10 10 0 6 5 10 10 10 6 0 10 -4 10 -10z m779 1 c9 -6 10 -11 2 -15 -13 -8 -31 1 -31 15 0 11 11 11 29 0z m-167 -16 c0 -5 -5 -11 -11 -13 -6 -2 -11 4 -11 13 0 9 5 15 11 13 6 -2 11 -8 11 -13z m243 5 c3 -6 -1 -13 -10 -16 -19 -8 -30 0 -20 15 8 14 22 14 30 1z m77 -15 c4 -21 3 -23 -13 -14 -20 10 -24 21 -12 32 12 13 21 7 25 -18z m1298 1 c0 -44 -5 -43 425 -95 50 -6 50 -6 53 -44 7 -84 -49 -114 -192 -103 -115 9 -166 31 -190 81 -11 23 -16 48 -12 66 3 16 1 29 -4 29 -6 0 -10 -9 -10 -20 0 -19 -7 -20 -224 -20 -124 0 -227 4 -230 9 -3 4 -18 11 -33 14 -17 4 -37 20 -52 42 -23 33 -51 47 -51 24 0 -6 -9 -24 -21 -40 -18 -26 -24 -28 -60 -23 -33 6 -39 4 -39 -11 0 -15 -12 -17 -107 -14 -60 1 -115 -1 -123 -5 -21 -9 -78 -2 -92 12 -15 15 0 16 37 2 21 -8 34 -6 57 7 23 14 32 15 35 5 5 -13 23 -7 23 9 0 13 -54 11 -68 -3 -18 -18 -15 22 3 46 8 10 12 23 9 27 -8 13 -46 10 -73 -5 l-24 -13 26 -18 c43 -28 35 -47 -15 -39 -36 6 -40 5 -35 -9 6 -15 -6 -17 -117 -17 l-124 0 -11 44 c-6 24 -18 46 -26 50 -8 3 -15 12 -15 21 0 13 72 15 640 15 l640 0 0 -24z m926 -1 c-36 -55 -11 -72 74 -50 30 8 55 13 55 12 1 -1 9 -13 18 -27 9 -13 17 -28 17 -32 0 -5 -122 -8 -271 -8 -243 0 -271 2 -265 16 3 9 6 38 6 65 l0 49 191 0 191 0 -16 -25z m108 16 c-2 -2 1 -10 7 -17 8 -10 4 -12 -23 -10 -18 2 -25 1 -15 -1 20 -5 23 -23 3 -23 -7 0 -28 -3 -45 -6 -24 -5 -31 -3 -31 10 0 28 33 51 72 51 20 0 34 -2 32 -4z m-2371 -43 c-6 -11 -43 -10 -43 0 0 19 22 31 35 19 7 -7 11 -15 8 -19z m457 8 c0 -20 -12 -26 -38 -19 -26 6 -29 20 -4 26 32 9 42 7 42 -7z m-960 -89 c0 -40 -4 -78 -9 -85 -4 -8 -40 -16 -87 -20 -112 -10 -402 -8 -413 3 -6 6 -12 49 -15 98 -5 68 -3 87 7 87 7 0 17 -4 23 -9 12 -11 70 -22 78 -14 9 10 197 5 210 -5 29 -23 166 1 166 28 0 7 7 7 20 0 17 -9 20 -21 20 -83z m175 73 c3 -5 12 -7 19 -4 8 3 16 1 19 -3 7 -10 109 -9 126 1 6 4 11 3 11 -3 0 -5 20 -9 45 -9 25 0 45 3 45 6 0 4 19 7 43 7 23 0 54 3 68 7 24 7 27 5 33 -23 3 -17 6 -57 6 -89 0 -63 -6 -70 -63 -70 -24 0 -35 6 -42 22 -18 41 -54 44 -182 15 -170 -39 -159 -43 -165 56 -3 45 -4 85 -1 90 6 10 31 9 38 -3z m2765 -32 c11 -24 19 -52 19 -63 -1 -11 -7 -1 -14 21 -7 23 -18 51 -24 63 -7 11 -9 21 -6 21 3 0 15 -19 25 -42z m-1572 5 c2 -9 -7 -13 -27 -13 -30 0 -39 9 -24 24 11 10 46 3 51 -11z m46 -48 c23 -36 20 -81 -6 -99 -33 -23 -103 -21 -128 4 -40 40 -16 128 32 117 13 -3 32 -2 43 3 26 10 40 4 59 -25z m-169 17 c6 -4 8 -22 4 -42 -5 -30 -7 -31 -8 -8 0 15 -5 30 -11 33 -12 7 -13 25 -2 25 4 0 12 -4 17 -8z m231 -61 c-11 -17 -26 -13 -19 5 4 10 0 20 -10 26 -10 5 -17 14 -17 21 0 6 12 0 26 -15 15 -14 23 -31 20 -37z m-2014 -14 c3 -25 9 -51 13 -56 3 -6 28 -11 56 -11 l49 0 0 -139 c0 -139 0 -139 -24 -145 -37 -9 -58 -35 -52 -62 5 -18 2 -24 -9 -24 -9 0 -18 -7 -21 -15 -4 -8 -12 -15 -20 -15 -11 0 -14 23 -16 108 -1 59 -3 116 -4 127 -1 11 -2 75 -3 143 -1 67 -5 122 -9 122 -5 0 -8 -21 -7 -47 9 -177 9 -467 0 -470 -9 -2 -16 504 -7 529 1 5 12 6 25 4 18 -2 23 -11 29 -49z m594 15 c-2 -15 -4 -42 -5 -59 0 -18 -5 -33 -9 -33 -4 0 -7 28 -6 63 3 74 2 70 13 62 6 -3 8 -18 7 -33z m68 -16 c3 -28 4 -51 3 -52 -1 -1 -15 -5 -32 -8 l-30 -7 3 58 c3 53 6 58 27 58 20 0 24 -6 29 -49z m589 45 c4 -1 7 -20 7 -43 0 -34 -8 -54 -38 -93 -57 -76 -102 -147 -102 -161 0 -28 31 -44 86 -44 l54 0 0 -77 c0 -43 3 -108 6 -144 l7 -67 -36 -4 c-19 -2 -39 -2 -44 -1 -5 2 -8 37 -7 77 2 73 2 74 -34 110 -20 20 -45 42 -55 48 -15 11 -18 30 -18 118 -2 187 -4 178 34 182 31 3 32 5 35 53 l3 50 47 -2 c26 -1 50 -2 55 -2z m37 -25 c0 -19 -4 -38 -10 -41 -6 -4 -10 10 -10 34 0 23 5 41 10 41 6 0 10 -15 10 -34z m126 9 c-1 -20 -7 -22 -52 -24 -40 -1 -53 2 -58 15 -9 23 5 30 63 31 44 1 49 -1 47 -22z m317 16 c4 -1 7 -8 7 -16 0 -12 -15 -15 -72 -16 -40 0 -88 -2 -107 -5 -29 -3 -32 -2 -21 11 6 8 10 18 7 22 -4 6 131 9 186 4z m37 -23 c0 -5 -4 -8 -10 -8 -5 0 -10 10 -10 23 0 18 2 19 10 7 5 -8 10 -18 10 -22z m440 10 c0 -16 -9 -17 -82 -14 -46 3 -86 5 -90 5 -5 1 -8 7 -8 14 0 9 25 12 90 12 80 1 90 -1 90 -17z m40 -10 c0 -5 -7 -8 -15 -8 -15 0 -20 21 -8 33 7 7 23 -11 23 -25z m175 -109 c0 -104 -2 -131 -10 -115 -23 44 -71 113 -112 163 -67 80 -61 88 57 88 l65 0 0 -136z m34 -87 c-1 -95 -5 -175 -10 -178 -5 -3 -9 83 -8 203 0 140 4 198 10 178 5 -16 8 -108 8 -203z m441 214 c0 -8 -6 -16 -12 -18 -7 -3 10 -13 37 -23 70 -26 79 -38 14 -18 -66 21 -60 16 -63 47 -2 17 2 26 10 26 8 0 14 -6 14 -14z m30 -6 c0 -11 -4 -20 -10 -20 -5 0 -10 9 -10 20 0 11 5 20 10 20 6 0 10 -9 10 -20z m191 -175 c0 -104 2 -208 4 -230 2 -22 4 -80 6 -129 l3 -89 -67 1 c-37 0 -71 1 -76 1 -8 1 -16 127 -11 161 2 8 3 66 3 128 1 84 4 112 13 108 21 -8 37 49 29 111 -6 57 -10 68 -23 68 -19 2 -52 17 -52 25 0 5 -2 14 -5 22 -4 10 14 13 85 13 l90 0 1 -190z m34 -114 c2 -166 7 -310 10 -321 3 -11 2 -20 -3 -20 -15 0 -22 126 -22 390 -1 287 -1 265 6 257 3 -3 7 -141 9 -306z m155 284 c-28 -30 -36 -78 -16 -98 9 -9 23 -14 31 -11 30 12 15 -34 -21 -61 -42 -32 -55 -62 -41 -92 8 -17 19 -23 44 -23 l33 0 -6 -117 c-3 -65 -6 -140 -6 -168 l1 -50 -75 0 -74 0 -1 45 c-1 25 -2 72 -4 105 -4 89 -7 256 -6 380 l1 110 80 0 80 1 -20 -21z m163 18 c2 -5 7 -21 11 -37 l7 -29 -30 29 c-17 16 -31 32 -31 36 0 10 38 10 43 1z m-2908 -632 c-6 -5 -154 -5 -160 0 -1 2 -6 120 -10 262 l-8 257 29 0 c50 1 108 12 122 22 6 6 13 29 14 52 0 22 5 -101 9 -274 5 -172 6 -316 4 -319z m965 619 c0 -5 -25 -10 -56 -10 -34 0 -53 4 -49 10 3 6 28 10 56 10 27 0 49 -4 49 -10z m1885 0 c-3 -5 -11 -10 -17 -10 -14 0 -48 -30 -48 -42 0 -5 12 0 26 11 40 31 61 28 34 -6 -25 -33 -88 -57 -107 -42 -10 9 -8 19 7 49 11 21 25 40 32 43 24 10 79 7 73 -3z m-3487 -360 c2 -124 5 -241 8 -261 6 -34 3 -38 -45 -74 -29 -20 -54 -35 -57 -33 -2 3 -7 88 -10 189 -3 101 -7 227 -9 279 -2 52 -4 114 -4 138 -1 27 -5 41 -11 37 -6 -4 -8 -10 -6 -14 3 -4 7 -133 10 -287 3 -153 8 -299 11 -324 3 -32 2 -38 -4 -20 -11 34 -21 186 -22 340 0 69 -4 165 -8 213 l-7 88 51 33 c96 63 89 64 95 -12 3 -37 7 -168 8 -292z m3627 340 c3 -11 13 -20 21 -20 8 0 14 -8 14 -17 -1 -20 -44 -73 -60 -73 -6 0 -19 -15 -30 -32 l-20 -33 -1 35 c-1 47 -7 77 -20 102 -15 29 -20 17 -9 -23 6 -18 10 -53 10 -76 0 -24 5 -43 13 -46 6 -2 9 -8 5 -12 -4 -4 -27 10 -52 31 -33 28 -45 46 -46 67 0 17 5 27 15 27 8 0 22 14 30 31 13 24 19 28 30 19 20 -17 47 -79 39 -91 -4 -7 -1 -10 7 -7 9 3 17 29 23 71 8 68 19 84 31 47z m-2033 -30 c6 -37 3 -40 -39 -40 -23 0 -33 5 -33 15 0 8 -4 15 -9 15 -5 0 -7 9 -4 20 4 16 14 20 43 20 34 0 38 -3 42 -30z m2207 3 l50 -28 -4 -235 c-2 -129 -1 -279 3 -332 l7 -96 -25 15 c-61 36 -62 37 -49 85 11 38 9 53 -9 113 -12 37 -22 83 -22 101 0 22 -7 38 -21 48 -17 12 -23 28 -26 79 l-5 64 47 1 c57 2 72 13 81 58 5 26 2 40 -12 55 -24 27 -67 49 -94 49 -22 0 -29 35 -7 43 24 10 37 7 86 -20z m-2764 6 c-16 -4 -91 -22 -165 -39 -74 -17 -149 -38 -166 -45 -18 -7 -35 -11 -38 -7 -6 5 -8 -35 -7 -113 1 -66 11 -297 15 -343 2 -23 0 -42 -4 -42 -11 0 -21 143 -22 329 -1 140 2 166 15 176 18 13 88 32 252 69 106 24 184 34 120 15z m832 -24 c24 -30 35 -35 71 -37 30 -1 46 -6 49 -17 3 -9 21 -49 39 -89 l33 -73 -130 2 -130 1 6 62 c4 33 7 72 9 86 1 14 0 39 -4 55 -4 19 -9 -10 -13 -79 -4 -60 -8 -110 -10 -112 -6 -6 -187 -12 -187 -6 1 6 9 37 52 189 l12 42 80 4 c45 1 84 4 88 5 3 1 19 -14 35 -33z m308 13 c9 -21 5 -25 -38 -48 -55 -28 -71 -51 -63 -86 9 -34 47 -46 142 -45 76 1 81 0 91 -22 l11 -24 -123 -1 -123 0 -37 84 -36 85 32 30 c44 41 59 48 99 49 27 0 38 -5 45 -22z m113 12 c41 0 72 -31 143 -140 27 -41 53 -80 59 -87 5 -7 10 -40 10 -74 0 -46 -5 -68 -21 -90 -16 -22 -19 -39 -15 -67 3 -20 7 -57 8 -81 l2 -43 -61 0 c-34 0 -65 2 -70 5 -4 3 -9 69 -11 146 l-3 141 23 0 c60 2 123 11 131 19 5 5 7 17 3 26 -5 14 -18 16 -79 13 -68 -3 -75 -2 -84 19 -10 20 -7 23 22 33 50 16 52 46 7 88 -41 38 -71 52 -109 52 -27 0 -63 25 -63 43 0 6 16 7 38 3 20 -3 52 -6 70 -6z m-795 -11 c-4 -7 -33 -60 -64 -118 l-56 -106 -83 -3 -83 -3 24 40 c51 85 134 190 154 193 69 10 116 9 108 -3z m157 2 c0 -5 -7 -26 -16 -46 -9 -21 -23 -70 -33 -109 l-17 -71 -96 -1 -96 -2 48 97 c26 53 50 103 53 111 3 11 8 7 16 -12 9 -24 16 -28 51 -28 34 0 41 4 46 24 3 14 3 30 -1 35 -4 7 4 11 19 11 14 0 26 -4 26 -9z m2040 -6 c0 -8 -4 -15 -10 -15 -5 0 -10 7 -10 15 0 8 5 15 10 15 6 0 10 -7 10 -15z m-680 -13 c37 -14 46 -22 48 -44 1 -16 1 -28 0 -28 -2 0 -25 7 -52 15 -27 8 -63 15 -79 15 l-31 0 22 20 c12 12 22 25 22 30 0 14 17 11 70 -8z m-1920 -16 c0 -21 -6 -25 -67 -36 -38 -7 -130 -27 -205 -46 -75 -19 -139 -34 -141 -34 -5 0 0 50 5 55 4 5 174 48 268 69 36 8 82 15 103 15 33 1 37 -2 37 -23z m1468 -20 c-17 -33 -18 -32 -18 9 0 32 2 36 15 25 11 -9 12 -17 3 -34z m519 -3 c-3 -10 -5 -4 -5 12 0 17 2 24 5 18 2 -7 2 -21 0 -30z m688 5 c44 -29 60 -70 36 -92 -29 -27 -72 -29 -122 -7 -56 25 -69 59 -35 89 41 38 74 40 121 10z m-2632 -257 c-8 -13 -12 16 -17 130 -2 70 -2 130 2 134 6 6 21 -254 15 -264z m1182 238 c31 -30 7 -40 -90 -40 -61 0 -85 -3 -78 -10 6 -6 45 -9 96 -7 47 2 83 0 80 -4 -8 -14 -170 -9 -180 5 -17 23 -9 61 16 73 34 17 131 6 156 -17z m441 -2 c94 -2 101 -3 132 -31 36 -33 43 -77 15 -108 -19 -22 -62 -23 -89 -4 -21 16 -18 24 12 29 31 4 27 21 -6 22 -16 0 -35 6 -42 13 -14 14 -124 16 -133 2 -3 -5 -16 -10 -28 -10 l-22 -1 21 -12 c12 -7 19 -18 17 -24 -7 -18 -58 -16 -74 3 -16 20 -13 78 7 120 l16 33 38 -15 c23 -9 76 -16 136 -17z m1117 -199 c-2 -128 0 -279 5 -335 4 -57 5 -103 1 -103 -4 0 -9 17 -12 37 -8 64 -8 633 0 633 5 0 7 -105 6 -232z m-4034 54 c2 -183 9 -352 21 -437 4 -33 7 -60 6 -61 0 0 -26 -21 -57 -47 l-56 -47 -7 243 c-3 133 -7 287 -7 342 l-2 99 43 38 c23 21 46 36 50 33 5 -3 9 -76 9 -163z m383 6 c3 -90 1 -174 -3 -188 -4 -14 -8 -18 -8 -9 -1 9 -9 23 -19 32 -15 14 -21 14 -34 4 -9 -6 -18 -19 -21 -27 -4 -10 -6 -9 -6 5 -2 43 38 58 72 28 19 -17 19 -17 14 2 -11 37 -19 315 -9 315 5 0 11 -69 14 -162z m193 -27 c4 -150 3 -182 -8 -178 -24 9 -82 -8 -82 -24 0 -8 -10 -30 -22 -48 l-21 -34 -7 44 c-4 24 -14 48 -21 54 -10 7 -14 54 -18 179 -2 93 -2 176 1 183 4 10 26 13 89 11 l84 -3 5 -184z m32 -9 c1 -108 5 -228 8 -267 4 -47 3 -67 -4 -60 -13 13 -28 525 -15 525 5 0 10 -89 11 -198z m2993 173 c0 -14 -4 -25 -10 -25 -5 0 -10 11 -10 25 0 14 5 25 10 25 6 0 10 -11 10 -25z m594 -412 l3 -352 -66 56 c-81 69 -78 50 -80 440 l-2 292 71 -43 70 -42 4 -351z m-1054 401 c36 -8 68 -14 71 -14 3 0 6 -13 7 -29 l1 -28 -47 9 c-26 5 -55 10 -65 11 -9 1 -20 10 -23 20 -3 10 -16 23 -30 29 -26 12 -22 33 5 23 9 -4 45 -13 81 -21z m-1887 4 c6 -21 -4 -47 -22 -52 -60 -18 -363 -86 -382 -86 -4 0 -9 11 -11 25 -4 21 -1 26 21 31 14 3 46 12 71 19 25 7 101 25 170 40 69 15 127 29 129 31 8 8 19 4 24 -8z m1039 -55 c11 -14 162 -19 192 -7 9 3 16 18 16 32 0 24 1 25 16 10 41 -40 -11 -68 -125 -68 -126 0 -170 26 -134 79 l18 26 3 -30 c2 -16 8 -36 14 -42z m945 10 c-3 -10 -5 -4 -5 12 0 17 2 24 5 18 2 -7 2 -21 0 -30z m520 0 c-9 -16 -19 -46 -23 -67 -5 -28 -9 -35 -15 -24 -10 18 3 70 26 105 22 33 30 22 12 -14z m-134 0 l32 -17 -37 -6 c-38 -7 -68 -25 -68 -42 0 -5 13 1 29 13 16 11 36 19 46 17 15 -3 15 -6 -5 -30 -17 -23 -29 -28 -65 -28 -68 0 -72 41 -6 85 42 30 35 29 74 8z m182 -23 c12 0 15 -17 15 -83 l0 -84 -34 1 c-30 1 -35 5 -40 30 -7 33 1 99 16 139 9 24 13 26 20 13 5 -9 16 -16 23 -16z m-3915 -187 c1 -109 3 -265 7 -348 3 -82 3 -148 0 -145 -6 7 -16 188 -23 463 -5 166 -4 227 5 227 8 0 11 -57 11 -197z m1370 115 c0 -39 -3 -68 -7 -64 -9 9 -10 136 0 136 4 0 7 -32 7 -72z m1868 -16 c3 -90 4 -89 -59 -70 -31 9 -39 16 -39 35 0 12 5 23 10 23 21 0 60 49 60 75 0 17 5 25 13 23 8 -3 13 -32 15 -86z m-1916 14 l-4 -63 -56 -16 c-31 -9 -65 -19 -74 -22 -16 -6 -18 0 -18 62 l0 70 68 15 c37 9 72 16 77 17 6 1 9 -24 7 -63z m1728 54 c13 -8 13 -11 1 -22 -12 -11 -13 -10 -6 2 7 13 6 13 -6 1 -10 -10 -11 -15 -2 -18 7 -2 2 -13 -12 -29 -26 -28 -53 -26 -87 4 -18 15 -24 53 -11 65 10 10 106 8 123 -3z m222 -75 c2 -58 -1 -85 -8 -85 -8 0 -12 30 -13 85 -2 112 17 112 21 0z m518 70 c7 -8 17 -12 23 -8 5 3 7 1 3 -5 -3 -6 3 -34 14 -63 12 -28 19 -53 18 -54 -5 -5 -113 -24 -116 -20 -1 1 -5 23 -8 48 -5 38 -2 50 16 69 l21 23 19 -23 c11 -13 22 -39 26 -58 3 -19 10 -34 14 -34 17 0 -17 88 -48 123 -8 9 -10 17 -5 17 6 0 16 -7 23 -15z m170 -71 c0 -43 -4 -74 -10 -74 -6 0 -10 34 -10 81 0 51 4 78 10 74 6 -3 10 -40 10 -81z m-652 -25 c-3 -96 -5 -103 -28 -120 -24 -17 -27 -17 -88 3 -45 15 -61 25 -57 35 3 8 5 21 5 29 0 11 5 12 18 5 9 -5 31 -11 48 -14 17 -3 41 -10 52 -16 41 -22 43 -16 37 84 -3 63 -2 95 5 95 7 0 10 -35 8 -101z m-2153 -1 c4 -46 3 -68 -4 -68 -7 0 -11 27 -11 72 0 87 5 86 15 -4z m-33 17 c1 -25 2 -54 2 -66 1 -16 -10 -24 -49 -38 -27 -10 -57 -21 -65 -25 -13 -5 -15 6 -15 74 l0 80 35 6 c19 3 40 7 45 9 36 12 45 5 47 -40z m215 23 c-3 -8 -6 -5 -6 6 -1 11 2 17 5 13 3 -3 4 -12 1 -19z m1485 -75 c0 -169 1 -168 -57 -141 -37 17 -31 30 11 22 27 -5 35 -4 30 5 -4 6 -16 11 -27 11 -25 0 -24 6 6 46 20 27 25 44 25 95 0 34 3 60 6 56 3 -3 6 -45 6 -94z m159 32 c20 -5 32 -1 47 15 17 18 27 21 60 15 36 -6 39 -8 40 -42 2 -45 -34 -110 -70 -129 -15 -8 -43 -14 -63 -14 -22 0 -43 -8 -55 -20 -24 -24 -46 -26 -54 -4 -7 18 8 50 26 58 7 3 2 4 -12 3 -21 -2 -25 -8 -28 -40 -2 -23 -8 -37 -14 -35 -20 7 -31 35 -23 54 4 11 7 56 6 102 -3 82 -3 82 23 82 13 0 28 5 32 11 4 6 16 -1 33 -20 14 -17 38 -33 52 -36z m-2007 -134 c-4 -9 -6 -50 -5 -91 2 -50 -1 -72 -7 -65 -12 11 -21 325 -10 325 4 0 9 -39 11 -87 l3 -88 4 95 4 95 3 -84 c2 -46 1 -91 -3 -100z m663 153 c2 -5 -18 -8 -44 -7 -27 1 -63 2 -80 2 -18 1 -33 5 -33 10 0 12 153 6 157 -5z m223 2 c0 -13 -12 -16 -67 -16 -75 0 -143 9 -143 19 0 3 47 8 105 9 91 3 105 2 105 -12z m200 4 c0 -5 -21 -10 -47 -11 -27 -1 -69 -2 -95 -3 -34 -2 -48 1 -48 11 0 10 23 13 95 13 57 0 95 -4 95 -10z m675 0 c-32 -13 -643 -15 -657 -2 -4 4 147 8 335 9 194 1 333 -2 322 -7z m974 -37 c0 -36 -3 -43 -9 -28 -12 28 -12 75 0 75 6 0 10 -21 9 -47z m-1629 -39 l0 -54 -50 52 c-27 28 -50 52 -50 52 0 1 23 2 50 3 l50 1 0 -54z m32 -16 c5 -70 3 -86 -6 -77 -8 8 -14 149 -6 149 4 0 10 -33 12 -72z m148 64 c0 -1 -28 -36 -62 -78 l-63 -75 -5 73 c-3 40 -2 75 2 78 7 5 128 7 128 2z m-629 -64 c0 -35 2 -103 4 -151 3 -48 1 -86 -4 -83 -5 3 -10 50 -11 103 -1 54 -4 119 -5 146 -2 26 1 47 6 47 5 0 9 -28 10 -62z m186 -28 c1 -47 4 -112 7 -145 l5 -61 -86 3 c-48 2 -87 4 -89 6 -1 1 -4 66 -6 145 l-3 143 85 -3 84 -3 3 -85z m202 -18 c50 -57 91 -106 91 -110 0 -4 -7 -17 -15 -30 -16 -22 -16 -22 -60 31 -24 28 -70 84 -102 124 -32 39 -64 74 -71 77 -10 5 -13 -23 -11 -135 0 -77 -1 -142 -3 -145 -7 -6 -18 135 -18 221 l0 72 49 -1 49 -1 91 -103z m25 24 c42 -46 76 -87 76 -90 0 -17 -23 2 -98 84 -46 50 -77 90 -69 90 8 0 49 -38 91 -84z m245 67 c-33 -43 -162 -193 -165 -193 -2 0 -4 4 -4 9 0 15 159 201 172 201 6 0 5 -7 -3 -17z m65 -25 c-22 -24 -93 -110 -158 -193 -66 -82 -142 -175 -170 -205 -28 -30 -63 -69 -77 -87 -16 -19 -39 -33 -58 -36 l-32 -5 17 26 c17 26 59 78 214 262 39 47 108 129 153 183 74 88 85 97 116 97 l34 0 -39 -42z m197 5 c0 -21 2 -49 4 -63 3 -24 7 -163 6 -185 -1 -6 -36 -9 -88 -8 l-88 1 -5 119 c-4 92 -2 124 10 146 14 26 18 27 87 27 l73 0 1 -37z m33 15 c7 -29 8 -283 0 -276 -7 8 -20 298 -13 298 4 0 9 -10 13 -22z m-1204 -13 c7 -9 11 -17 9 -19 -7 -7 -209 -76 -267 -92 -30 -8 -62 -19 -73 -25 -16 -8 -24 -6 -39 13 -11 13 -19 25 -20 28 0 8 78 36 150 53 36 9 97 25 135 36 86 24 90 25 105 6z m590 -130 l75 -90 -20 -21 c-17 -18 -29 -20 -87 -16 l-68 4 -1 47 c0 25 -2 84 -4 131 -3 82 -3 84 13 60 9 -14 51 -65 92 -115z m-467 20 c6 -13 2 -15 -192 -71 -69 -19 -139 -41 -157 -49 -27 -11 -34 -11 -48 3 -14 15 -6 19 97 57 61 22 141 49 177 59 36 11 69 23 75 28 23 20 -42 4 -205 -52 -169 -58 -175 -59 -193 -41 -18 17 -17 18 25 34 24 9 63 21 88 27 68 17 230 82 230 92 0 12 97 -70 103 -87z m2471 88 c20 -4 24 -12 29 -58 3 -29 12 -67 21 -83 30 -58 14 -144 -34 -187 -19 -17 -35 -20 -120 -19 -89 1 -101 3 -132 27 -45 35 -63 102 -52 190 9 65 9 69 3 102 -4 17 3 21 51 26 63 7 200 8 234 2z m-1611 -126 c3 -64 2 -115 -2 -112 -5 2 -9 44 -10 92 -1 49 -3 97 -5 108 -3 19 3 40 9 33 1 -2 5 -56 8 -121z m830 -7 l-48 -46 -90 27 c-82 24 -108 28 -93 14 3 -3 40 -16 83 -29 44 -12 81 -29 83 -36 3 -7 0 -10 -5 -7 -5 3 -22 8 -37 11 -16 3 -57 15 -92 26 -58 20 -62 23 -51 41 8 13 23 19 50 19 21 0 47 5 58 11 15 8 31 6 64 -6 24 -10 49 -15 57 -12 7 2 -7 10 -32 17 -57 17 -55 15 -34 43 l18 24 59 -26 58 -25 -48 -46z m-2733 71 c0 -14 -5 -18 -20 -14 -21 5 -25 15 -13 26 13 14 33 6 33 -12z m1875 -82 l7 -96 -40 1 c-26 1 -49 10 -70 28 -18 15 -28 28 -24 30 5 2 32 34 61 71 30 37 55 67 56 65 1 -2 6 -46 10 -99z m955 61 c-9 -6 -12 -32 -11 -85 1 -47 -2 -75 -8 -71 -5 3 -8 33 -8 66 1 33 0 60 -2 60 -2 0 -26 -20 -52 -45 -80 -75 -72 -50 10 30 42 41 78 69 80 63 2 -5 -2 -14 -9 -18z m-2610 -15 c0 -2 -13 -11 -29 -19 -16 -9 -37 -34 -49 -58 -11 -24 -27 -52 -36 -63 -15 -20 -15 -20 -16 4 0 13 15 44 34 70 18 25 31 52 29 59 -3 8 7 12 31 12 20 0 36 -2 36 -5z m405 -107 c21 -20 36 -40 32 -44 -4 -4 -8 -5 -10 -3 -1 2 -30 34 -65 71 -34 36 -62 72 -62 80 1 7 15 -5 33 -27 18 -21 50 -56 72 -77z m2225 -35 c0 -80 -3 -144 -6 -140 -10 9 -12 287 -2 287 4 0 8 -66 8 -147z m-2611 37 l1 -35 -55 0 c-30 0 -55 1 -55 2 0 15 47 93 56 93 6 0 18 7 25 17 13 15 15 13 20 -13 4 -16 7 -45 8 -64z m797 64 c-11 -8 -27 -14 -36 -14 -16 0 -251 -69 -302 -89 -33 -13 -38 2 -5 15 55 24 350 112 357 107 3 -3 -4 -11 -14 -19z m-1146 -5 c0 -5 -9 -9 -20 -9 -11 0 -21 -6 -21 -12 -2 -25 3 -53 12 -62 14 -15 23 2 9 19 -7 8 -10 22 -6 30 11 30 24 14 28 -35 3 -56 -8 -64 -42 -30 -29 29 -30 72 -3 102 15 16 43 14 43 -3z m2424 -64 c2 -44 7 -116 11 -160 4 -57 3 -75 -4 -64 -6 9 -13 70 -16 135 -3 66 -8 132 -10 147 -3 17 -1 27 5 25 6 -2 12 -39 14 -83z m33 15 c2 -27 0 -50 -5 -50 -5 0 -10 26 -11 57 -2 69 10 64 16 -7z m64 46 c19 -3 55 -14 82 -25 36 -16 47 -25 47 -43 0 -21 -5 -23 -47 -23 -55 0 -63 7 -63 53 0 18 -3 31 -7 29 -5 -3 -5 -43 -2 -89 3 -45 4 -85 2 -87 -8 -12 -14 12 -14 68 -1 35 -5 75 -9 89 -7 23 -8 20 -9 -20 -1 -38 -4 -46 -16 -42 -11 4 -15 21 -15 56 0 27 4 47 9 44 5 -3 24 -8 42 -10z m-1877 -17 c-3 -6 -6 -69 -6 -140 1 -129 -7 -165 -15 -72 -6 70 7 234 18 227 5 -3 7 -10 3 -15z m2254 -45 c-3 -24 -7 -26 -55 -28 -53 -1 -69 7 -35 18 10 4 34 22 53 42 31 32 34 33 37 15 2 -11 2 -32 0 -47z m-1738 -91 c0 -82 -5 -155 -10 -163 -6 -10 -9 40 -9 148 0 96 4 162 9 162 6 0 10 -60 10 -147z m-30 103 c0 -38 -10 -49 -34 -40 -19 7 -22 60 -3 67 29 12 37 6 37 -27z m-438 -3 c37 -35 35 -43 -7 -41 -32 1 -34 3 -33 35 1 18 4 33 7 33 3 0 18 -12 33 -27z m372 -15 c4 -17 2 -28 -4 -28 -5 0 -10 14 -10 32 0 36 4 35 14 -4z m-35 -70 c-1 -108 -16 -94 -19 17 -1 39 -4 62 -7 53 -3 -12 -14 -18 -31 -18 -15 -1 -45 -3 -67 -5 -46 -6 -30 4 50 28 79 24 75 27 74 -75z m1648 55 c-3 -10 -5 -4 -5 12 0 17 2 24 5 18 2 -7 2 -21 0 -30z m47 17 c30 -11 35 -27 8 -25 -22 1 -42 13 -42 26 0 11 3 11 34 -1z m57 -72 c0 -35 3 -94 8 -131 4 -38 4 -70 -1 -73 -4 -3 -8 14 -9 38 0 24 -2 50 -3 58 -12 61 -16 170 -7 170 7 0 11 -25 12 -62z m-2033 20 c7 -7 12 -23 12 -37 0 -25 -3 -26 -55 -26 l-55 0 0 38 0 37 43 0 c24 0 48 -5 55 -12z m252 -26 l0 -37 -100 0 -100 0 0 31 c0 17 3 34 7 37 3 4 48 7 100 7 l93 0 0 -38z m130 3 c0 -32 -2 -35 -29 -35 -16 0 -36 -3 -45 -6 -12 -4 -15 3 -14 35 l0 41 44 0 c44 0 44 0 44 -35z m495 3 c-26 -30 -34 -34 -104 -39 -42 -4 -135 -4 -208 -1 l-131 5 -4 34 -4 33 239 0 239 0 -27 -32z m771 2 l0 -30 -65 0 c-36 -1 -91 -2 -121 -5 -30 -2 -93 -4 -139 -6 -83 -2 -84 -2 -112 31 -16 18 -29 34 -29 36 0 2 105 4 233 4 l233 0 0 -30z m108 14 c12 -32 6 -44 -23 -44 -28 0 -41 14 -41 46 0 20 56 18 64 -2z m246 -8 c0 -24 -1 -25 -100 -25 l-100 -1 0 25 c0 25 0 25 100 25 99 0 100 0 100 -24z m180 -7 c0 -24 -3 -30 -16 -25 -9 3 -40 6 -70 6 -51 0 -54 1 -54 25 0 24 2 25 70 25 l70 0 0 -31z m-2145 -120 c0 -71 -3 -129 -7 -129 -5 0 -8 61 -8 137 0 75 3 133 8 129 4 -4 7 -66 7 -137z m1042 86 c16 -12 13 -13 -30 -13 -26 0 -47 2 -47 4 0 3 8 16 18 29 15 21 18 22 29 9 6 -9 20 -22 30 -29z"/> <path d="M3896 1138 c-9 -12 -16 -29 -16 -38 0 -8 9 0 21 19 23 38 19 54 -5 19z"/> <path d="M495 1100 c-3 -5 -2 -10 4 -10 5 0 13 5 16 10 3 6 2 10 -4 10 -5 0 -13 -4 -16 -10z"/> <path d="M848 1073 c7 -3 16 -2 19 1 4 3 -2 6 -13 5 -11 0 -14 -3 -6 -6z"/> <path d="M3000 920 c0 -5 5 -10 10 -10 6 0 10 5 10 10 0 6 -4 10 -10 10 -5 0 -10 -4 -10 -10z"/> <path d="M3140 900 c0 -5 5 -10 10 -10 6 0 10 5 10 10 0 6 -4 10 -10 10 -5 0 -10 -4 -10 -10z"/> <path d="M3070 880 c0 -5 4 -10 9 -10 6 0 13 5 16 10 3 6 -1 10 -9 10 -9 0 -16 -4 -16 -10z"/> <path d="M435 680 c-14 -5 -5 -8 30 -8 35 0 44 3 30 8 -11 5 -24 9 -30 9 -5 0 -19 -4 -30 -9z"/> <path d="M4109 577 c5 -5 21 -7 37 -5 27 3 26 4 -8 9 -22 3 -34 1 -29 -4z"/> <path d="M3990 813 c0 -10 110 -25 119 -17 9 8 -7 14 -62 20 -36 4 -57 3 -57 -3z"/> <path d="M2564 829 c-7 -12 15 -31 30 -26 6 2 11 9 12 15 1 7 0 8 -3 2 -8 -16 -26 -12 -19 5 6 17 -9 20 -20 4z"/> <path d="M620 813 c1 -5 20 -17 43 -29 53 -25 61 -56 20 -78 -17 -9 -22 -15 -12 -16 19 0 49 31 49 52 0 8 -8 22 -17 30 -25 21 -83 50 -83 41z"/> <path d="M615 690 c-3 -5 1 -10 9 -10 8 0 18 5 21 10 3 6 -1 10 -9 10 -8 0 -18 -4 -21 -10z"/> <path d="M4288 643 c29 -20 28 -46 -3 -63 -14 -7 -23 -15 -20 -18 9 -10 55 29 55 47 0 19 -30 51 -46 50 -5 0 1 -7 14 -16z"/> <path d="M2193 354 c-8 -21 13 -42 28 -27 13 13 5 43 -11 43 -6 0 -13 -7 -17 -16z"/> <path d="M3900 539 l-95 -5 118 -2 c64 -1 117 2 117 6 0 9 -8 9 -140 1z"/> <path d="M3910 511 l-125 -5 125 -6 125 -6 -130 -3 c-103 -3 -121 -5 -85 -11 54 -10 199 -4 232 9 21 9 21 10 3 11 -20 1 -20 1 0 10 20 9 20 9 0 7 -11 -1 -76 -4 -145 -6z"/> <path d="M4048 436 c3 -28 0 -34 -19 -39 -31 -8 -39 -1 -39 34 0 16 -4 29 -9 29 -6 0 -7 -16 -4 -35 6 -35 5 -35 -32 -35 -37 0 -37 0 -31 35 5 23 3 35 -4 35 -8 0 -11 -21 -8 -65 3 -65 3 -65 -24 -65 -17 0 -31 8 -38 19 -16 31 -12 39 23 44 l32 4 -34 1 c-30 2 -33 5 -29 27 3 14 1 25 -3 25 -5 0 -9 -9 -9 -21 0 -16 -4 -19 -22 -14 l-23 6 21 -18 c12 -10 25 -29 29 -42 7 -22 5 -23 -21 -18 -28 6 -28 6 4 -8 17 -8 32 -22 32 -30 0 -8 4 -15 10 -15 5 0 7 7 4 15 -5 11 1 15 25 15 26 0 31 -4 31 -25 0 -22 -3 -24 -37 -19 -21 2 -47 7 -58 9 -11 3 -4 -3 15 -12 19 -9 46 -15 59 -14 13 2 28 -3 32 -11 7 -10 9 -10 9 0 0 6 9 12 20 12 11 0 20 -5 20 -12 0 -9 3 -9 12 0 16 16 48 15 48 0 0 -7 5 -5 11 5 5 9 16 17 24 17 8 0 17 5 21 11 4 8 -1 9 -16 4 -19 -6 -22 -4 -17 10 4 9 7 21 7 26 0 5 7 9 15 9 8 0 15 5 15 11 0 6 -7 9 -15 5 -22 -8 -20 33 3 50 16 13 16 13 0 14 -13 0 -18 8 -18 30 0 17 -4 30 -8 30 -4 0 -6 -15 -4 -34z m0 -73 c-4 -38 -43 -45 -50 -9 -5 25 -2 27 45 35 5 0 7 -11 5 -26z m-68 -8 c0 -21 -5 -25 -29 -25 -23 0 -30 5 -33 25 -5 23 -2 25 28 25 30 0 34 -3 34 -25z m-14 -45 c8 0 14 -9 14 -21 0 -32 -54 -23 -58 10 -3 19 0 22 13 17 9 -3 23 -6 31 -6z m75 -12 c-10 -28 -51 -36 -51 -10 0 25 9 32 36 32 20 0 22 -3 15 -22z"/> <path d="M360 1042 c0 -29 4 -52 10 -52 6 0 8 19 5 47 -6 64 -15 67 -15 5z"/> </g> </svg> 